<svg width="79" height="56" viewBox="0 0 79 56" fill="none" xmlns="http://www.w3.org/2000/svg">
<path d="M24.8702 21.5192H15.8055C15.7679 22.6302 15.7985 23.8595 15.7888 24.9774C18.2388 24.998 20.7251 24.9801 23.1918 24.9842V32.2346C20.7083 32.2415 18.204 32.225 15.7345 32.2415C15.7372 35.118 15.7512 37.9395 15.7512 40.816C15.7512 40.8256 15.7484 40.8297 15.7442 40.8325H8.18795C8.17402 40.8352 8.17402 40.8256 8.16427 40.8256C8.14756 31.9954 8.14756 23.1074 8.16149 14.2744C8.16149 14.2647 8.16149 14.251 8.16845 14.251H24.3562C24.366 14.251 24.3702 14.251 24.373 14.2579C24.5429 16.6765 24.7058 19.0979 24.8702 21.5192ZM70.5503 40.7871H62.0177C61.9397 40.7871 61.7962 40.4475 61.7544 40.376C60.5803 38.2846 59.4075 36.1836 58.2403 34.095C56.9923 36.3184 55.7777 38.5775 54.5325 40.8036C51.7384 40.8105 48.968 40.7899 46.1976 40.7967C46.511 40.2179 46.8453 39.6514 47.1796 39.0821C49.5098 35.1084 51.8053 31.0796 54.1397 27.1031C51.659 22.8255 49.1421 18.5822 46.6475 14.3156C46.6406 14.3156 46.6238 14.2881 46.6406 14.2922H55.2136C56.268 16.1856 57.2945 18.101 58.3322 20.0067C59.4103 18.1175 60.4507 16.1911 61.5191 14.2922H69.8052C69.8121 14.3252 69.7884 14.3624 69.7717 14.3899C67.3523 18.5864 64.8758 22.7952 62.4606 26.9986C65.1461 31.5993 67.883 36.196 70.5503 40.7871ZM49.8358 24.5745C50.0545 25.4504 50.1798 26.4129 50.1798 27.4276C50.1798 30.5901 49.2522 32.9345 47.9624 34.8402C47.7437 35.1634 47.5222 35.4727 47.2841 35.7697C46.5848 36.6456 45.738 37.4431 44.7936 38.1072C44.1585 38.5513 43.4969 38.9556 42.7642 39.2966C41.3045 39.9731 39.5398 40.5025 37.5076 40.5025C34.3277 40.5025 31.9807 39.5455 30.0809 38.2324C28.181 36.9151 26.7004 35.1744 25.6934 32.9785C25.0178 31.5072 24.5749 29.8091 24.5234 27.7411C24.4997 26.7167 24.6292 25.7075 24.8173 24.8316C25.295 22.622 26.2324 20.8909 27.4205 19.399C28.6072 17.9099 30.1129 16.7452 31.9306 15.8666C32.6437 15.5229 33.4418 15.23 34.3124 15.0182C35.1829 14.8065 36.144 14.6607 37.1845 14.6607H37.2012C38.218 14.614 39.296 14.7749 40.1415 14.9605C41.0218 15.153 41.8366 15.4459 42.5637 15.769C44.8159 16.7727 46.4943 18.2742 47.8454 20.1511C48.734 21.3776 49.4026 22.853 49.8358 24.5745ZM39.6011 33.3511C39.6832 33.028 39.6596 32.6141 39.6596 32.1865V22.4542C39.6596 22.0362 39.6122 21.7131 39.4896 21.4106C39.3768 21.1342 39.2027 20.8812 38.998 20.6764C38.5982 20.2762 37.9979 19.9146 37.2443 19.9724C36.8794 19.9999 36.5758 20.114 36.3097 20.279C35.8153 20.5884 35.4392 21.0641 35.286 21.6939C35.208 22.0142 35.2108 22.4212 35.2108 22.842V32.5742C35.2108 32.7832 35.201 32.9854 35.2275 33.1641C35.2985 33.6756 35.5311 34.0867 35.8348 34.3934C36.2276 34.788 36.8348 35.118 37.619 35.0327C38.6316 34.9227 39.3754 34.26 39.6011 33.3511Z" fill="#262626"/>
</svg>
