<svg width="49" height="49" viewBox="0 0 49 49" fill="none" xmlns="http://www.w3.org/2000/svg">
<rect x="0.488281" y="0.0859375" width="48" height="48" rx="24" fill="white"/>
<g clip-path="url(#clip0_214_8863)">
<path d="M24.4883 14.2487C27.6943 14.2487 28.0707 14.263 29.3378 14.3202C30.5097 14.3726 31.1433 14.5679 31.5673 14.7346C32.1294 14.9537 32.5296 15.211 32.9488 15.6302C33.368 16.0494 33.63 16.4496 33.8444 17.0117C34.0064 17.4357 34.2064 18.0693 34.2588 19.2412C34.316 20.5083 34.3303 20.8847 34.3303 24.0907C34.3303 27.2967 34.316 27.6731 34.2588 28.9402C34.2064 30.1121 34.0111 30.7457 33.8444 31.1697C33.6253 31.7318 33.368 32.132 32.9488 32.5512C32.5296 32.9704 32.1294 33.2324 31.5673 33.4468C31.1433 33.6088 30.5097 33.8088 29.3378 33.8612C28.0707 33.9184 27.6943 33.9327 24.4883 33.9327C21.2823 33.9327 20.9059 33.9184 19.6387 33.8612C18.4668 33.8088 17.8333 33.6135 17.4093 33.4468C16.8472 33.2277 16.447 32.9704 16.0278 32.5512C15.6086 32.132 15.3466 31.7318 15.1322 31.1697C14.9702 30.7457 14.7701 30.1121 14.7177 28.9402C14.6606 27.6731 14.6463 27.2967 14.6463 24.0907C14.6463 20.8847 14.6606 20.5083 14.7177 19.2412C14.7701 18.0693 14.9655 17.4357 15.1322 17.0117C15.3513 16.4496 15.6086 16.0494 16.0278 15.6302C16.447 15.211 16.8472 14.949 17.4093 14.7346C17.8333 14.5726 18.4668 14.3726 19.6387 14.3202C20.9059 14.2582 21.287 14.2487 24.4883 14.2487ZM24.4883 12.0859C21.2299 12.0859 20.8202 12.1002 19.5387 12.1574C18.262 12.2146 17.3902 12.4194 16.628 12.7148C15.8372 13.0196 15.1703 13.4341 14.5034 14.101C13.8364 14.768 13.4267 15.4396 13.1171 16.2257C12.8217 16.9879 12.6169 17.8597 12.5597 19.1411C12.5026 20.4178 12.4883 20.8275 12.4883 24.0859C12.4883 27.3444 12.5026 27.7541 12.5597 29.0355C12.6169 30.3122 12.8217 31.184 13.1171 31.951C13.422 32.7418 13.8364 33.4087 14.5034 34.0756C15.1703 34.7425 15.842 35.1522 16.628 35.4619C17.3902 35.7572 18.262 35.9621 19.5435 36.0192C20.8249 36.0764 21.2299 36.0907 24.4931 36.0907C27.7563 36.0907 28.1612 36.0764 29.4426 36.0192C30.7193 35.9621 31.5911 35.7572 32.3581 35.4619C33.1489 35.157 33.8158 34.7425 34.4827 34.0756C35.1497 33.4087 35.5594 32.737 35.869 31.951C36.1644 31.1888 36.3692 30.317 36.4264 29.0355C36.4835 27.7541 36.4978 27.3491 36.4978 24.0859C36.4978 20.8227 36.4835 20.4178 36.4264 19.1364C36.3692 17.8597 36.1644 16.9879 35.869 16.2209C35.5641 15.4301 35.1497 14.7632 34.4827 14.0963C33.8158 13.4293 33.1441 13.0196 32.3581 12.71C31.5959 12.4146 30.7241 12.2098 29.4426 12.1526C28.1564 12.1002 27.7467 12.0859 24.4883 12.0859Z" fill="#030B05"/>
<path d="M24.4883 14.2487C27.6943 14.2487 28.0707 14.263 29.3378 14.3202C30.5097 14.3726 31.1433 14.5679 31.5673 14.7346C32.1294 14.9537 32.5296 15.211 32.9488 15.6302C33.368 16.0494 33.63 16.4496 33.8444 17.0117C34.0064 17.4357 34.2064 18.0693 34.2588 19.2412C34.316 20.5083 34.3303 20.8847 34.3303 24.0907C34.3303 27.2967 34.316 27.6731 34.2588 28.9402C34.2064 30.1121 34.0111 30.7457 33.8444 31.1697C33.6253 31.7318 33.368 32.132 32.9488 32.5512C32.5296 32.9704 32.1294 33.2324 31.5673 33.4468C31.1433 33.6088 30.5097 33.8088 29.3378 33.8612C28.0707 33.9184 27.6943 33.9327 24.4883 33.9327C21.2823 33.9327 20.9059 33.9184 19.6387 33.8612C18.4668 33.8088 17.8333 33.6135 17.4093 33.4468C16.8472 33.2277 16.447 32.9704 16.0278 32.5512C15.6086 32.132 15.3466 31.7318 15.1322 31.1697C14.9702 30.7457 14.7701 30.1121 14.7177 28.9402C14.6606 27.6731 14.6463 27.2967 14.6463 24.0907C14.6463 20.8847 14.6606 20.5083 14.7177 19.2412C14.7701 18.0693 14.9655 17.4357 15.1322 17.0117C15.3513 16.4496 15.6086 16.0494 16.0278 15.6302C16.447 15.211 16.8472 14.949 17.4093 14.7346C17.8333 14.5726 18.4668 14.3726 19.6387 14.3202C20.9059 14.2582 21.287 14.2487 24.4883 14.2487Z" fill="#030B05"/>
<path d="M24.4886 17.9268C21.0872 17.9268 18.3242 20.685 18.3242 24.0911C18.3242 27.4972 21.0825 30.2555 24.4886 30.2555C27.8947 30.2555 30.6529 27.4972 30.6529 24.0911C30.6529 20.685 27.8947 17.9268 24.4886 17.9268ZM24.4886 28.0879C22.2782 28.0879 20.487 26.2967 20.487 24.0863C20.487 21.8759 22.2782 20.0848 24.4886 20.0848C26.699 20.0848 28.4902 21.8759 28.4902 24.0863C28.4902 26.2967 26.699 28.0879 24.4886 28.0879Z" fill="white"/>
<path d="M30.8957 19.1176C31.6903 19.1176 32.3344 18.4735 32.3344 17.6789C32.3344 16.8843 31.6903 16.2402 30.8957 16.2402C30.1011 16.2402 29.457 16.8843 29.457 17.6789C29.457 18.4735 30.1011 19.1176 30.8957 19.1176Z" fill="white"/>
</g>
<defs>
<clipPath id="clip0_214_8863">
<rect width="24" height="24" fill="white" transform="translate(12.4883 12.0859)"/>
</clipPath>
</defs>
</svg>
