<svg width="49" height="49" viewBox="0 0 49 49" fill="none" xmlns="http://www.w3.org/2000/svg">
<rect x="0.488281" y="0.0859375" width="48" height="48" rx="24" fill="white"/>
<path d="M33.5449 19.2671C33.5542 19.4783 33.5542 19.6799 33.5542 19.8911C33.5634 26.2943 28.859 33.6863 20.2557 33.6863C17.7183 33.6863 15.2271 32.9279 13.0879 31.5071C13.4583 31.5551 13.8288 31.5743 14.1992 31.5743C16.3014 31.5743 18.348 30.8447 20.0057 29.4911C18.0054 29.4527 16.2458 28.0991 15.6346 26.1215C16.3384 26.2655 17.0608 26.2367 17.7461 26.0351C15.5698 25.5935 14.0047 23.6063 13.9954 21.2927C13.9954 21.2735 13.9954 21.2543 13.9954 21.2351C14.6437 21.6095 15.3753 21.8207 16.1162 21.8399C14.0695 20.4191 13.4305 17.5871 14.6715 15.3695C17.0515 18.4031 20.5521 20.2367 24.3119 20.4383C23.9322 18.7583 24.4508 16.9919 25.664 15.8015C27.5439 13.9679 30.5074 14.0639 32.2855 16.0127C33.3319 15.8015 34.3413 15.3983 35.2582 14.8319C34.9062 15.9551 34.1746 16.9055 33.2023 17.5103C34.1283 17.3951 35.0359 17.1359 35.8879 16.7519C35.2582 17.7311 34.4617 18.5759 33.5449 19.2671Z" fill="#030B05"/>
</svg>
