<svg width="auto" height="auto" viewBox="0 0 807 492" fill="none" xmlns="http://www.w3.org/2000/svg">
<rect x="2.69629" y="2.29297" width="700.607" height="487" rx="20.2508" fill="white"/>
<path d="M56.9705 62.5352V49.9857H62.4709C63.8356 49.9857 64.8858 50.2765 65.6216 50.858C66.3573 51.4276 66.7252 52.2227 66.7252 53.2432C66.7252 54.0027 66.4997 54.6436 66.0488 55.1657C65.5978 55.6879 64.9748 56.0379 64.1797 56.2159V55.9489C65.0935 56.0795 65.7996 56.4117 66.298 56.9458C66.8083 57.4679 67.0634 58.1621 67.0634 59.0284C67.0634 60.1439 66.6777 61.0102 65.9064 61.6273C65.135 62.2325 64.0611 62.5352 62.6845 62.5352H56.9705ZM59.1778 60.7907H62.4175C63.1888 60.7907 63.7881 60.6483 64.2153 60.3635C64.6425 60.0668 64.8561 59.5862 64.8561 58.9216C64.8561 58.2452 64.6425 57.7646 64.2153 57.4798C63.7881 57.1831 63.1888 57.0348 62.4175 57.0348H59.1778V60.7907ZM59.1778 55.3081H62.0793C62.8981 55.3081 63.5033 55.1598 63.8949 54.8631C64.2984 54.5546 64.5001 54.1036 64.5001 53.5102C64.5001 52.9169 64.2984 52.4719 63.8949 52.1752C63.5033 51.8667 62.8981 51.7124 62.0793 51.7124H59.1778V55.3081ZM74.1379 62.7132C72.346 62.7132 71.0109 62.2681 70.1328 61.3781C69.2665 60.4762 68.8333 59.1471 68.8333 57.3908V49.9857H71.1296V57.373C71.1296 58.4885 71.367 59.331 71.8416 59.9007C72.3282 60.4703 73.0936 60.7551 74.1379 60.7551C75.1347 60.7551 75.8824 60.4703 76.3808 59.9007C76.8911 59.331 77.1462 58.4885 77.1462 57.373V49.9857H79.4069V57.3908C79.4069 59.1471 78.9619 60.4762 78.0718 61.3781C77.1937 62.2681 75.8824 62.7132 74.1379 62.7132ZM81.7251 62.5352V49.9857H84.0214V60.5949H89.9312V62.5352H81.7251ZM91.3298 62.5352V49.9857H93.6261V55.5395H93.6617L99.1265 49.9857H101.903L95.3528 56.5186L95.3706 55.5217L102.331 62.5352H99.4647L93.6617 56.7322H93.6261V62.5352H91.3298ZM111.737 62.7132C110.728 62.7132 109.797 62.5886 108.942 62.3393C108.1 62.0783 107.376 61.7223 106.771 61.2713L107.483 59.4735C107.886 59.7583 108.307 60.0015 108.746 60.2033C109.186 60.3931 109.654 60.5415 110.153 60.6483C110.651 60.7432 111.179 60.7907 111.737 60.7907C112.674 60.7907 113.351 60.6364 113.766 60.3279C114.182 60.0193 114.389 59.6159 114.389 59.1174C114.389 58.6784 114.247 58.3461 113.962 58.1206C113.677 57.8833 113.167 57.6875 112.431 57.5332L110.42 57.1238C109.269 56.8864 108.408 56.4889 107.839 55.9311C107.269 55.3734 106.984 54.6258 106.984 53.6883C106.984 52.905 107.192 52.2227 107.607 51.6412C108.023 51.0597 108.604 50.6088 109.352 50.2883C110.099 49.9679 110.972 49.8077 111.968 49.8077C112.858 49.8077 113.683 49.9383 114.443 50.1993C115.202 50.4485 115.837 50.8105 116.347 51.2852L115.635 52.994C115.125 52.5668 114.567 52.2523 113.962 52.0506C113.357 51.837 112.68 51.7302 111.933 51.7302C111.09 51.7302 110.432 51.8963 109.957 52.2286C109.494 52.549 109.263 52.994 109.263 53.5637C109.263 54.0027 109.405 54.3528 109.69 54.6139C109.987 54.875 110.485 55.0767 111.185 55.2191L113.179 55.6107C114.366 55.8481 115.244 56.2397 115.813 56.7856C116.383 57.3196 116.668 58.0435 116.668 58.9572C116.668 59.7049 116.466 60.3635 116.063 60.9331C115.659 61.4909 115.089 61.9299 114.354 62.2503C113.618 62.5589 112.746 62.7132 111.737 62.7132ZM118.475 62.5352V49.9857H120.771V55.5395H120.807L126.272 49.9857H129.049L122.498 56.5186L122.516 55.5217L129.476 62.5352H126.61L120.807 56.7322H120.771V62.5352H118.475ZM129.975 62.5352V49.9857H132.271V62.5352H129.975ZM134.677 62.5352V49.9857H140.249C141.625 49.9857 142.675 50.318 143.399 50.9826C144.123 51.6471 144.485 52.5609 144.485 53.7239C144.485 54.875 144.123 55.7887 143.399 56.4651C142.675 57.1416 141.625 57.4798 140.249 57.4798H136.973V62.5352H134.677ZM136.973 55.6641H139.982C140.741 55.6641 141.311 55.498 141.691 55.1657C142.07 54.8216 142.26 54.3409 142.26 53.7239C142.26 53.1068 142.07 52.6321 141.691 52.2998C141.311 51.9557 140.741 51.7836 139.982 51.7836H136.973V55.6641ZM153.66 62.5352V51.8726H149.513V49.9857H160.104V51.8726H155.956V62.5352H153.66ZM161.37 62.5352V49.9857H166.853C168.23 49.9857 169.292 50.3121 170.039 50.9648C170.799 51.6175 171.178 52.5253 171.178 53.6883C171.178 54.4596 171.006 55.1182 170.662 55.6641C170.33 56.21 169.849 56.6313 169.22 56.928C168.591 57.2128 167.85 57.3552 166.995 57.3552L167.245 57.017H167.85C168.348 57.017 168.793 57.1475 169.185 57.4086C169.576 57.6697 169.897 58.0672 170.146 58.6012L171.979 62.5352H169.452L167.601 58.4588C167.434 58.0435 167.179 57.7705 166.835 57.64C166.503 57.5095 166.099 57.4442 165.625 57.4442H163.667V62.5352H161.37ZM163.667 55.7531H166.479C167.286 55.7531 167.897 55.587 168.313 55.2547C168.74 54.9106 168.953 54.4121 168.953 53.7595C168.953 53.1068 168.74 52.6143 168.313 52.282C167.897 51.9497 167.286 51.7836 166.479 51.7836H163.667V55.7531ZM171.899 62.5352L177.577 49.9857H179.499L185.249 62.5352H182.917L181.386 59.0106L182.312 59.6337H174.782L175.743 59.0106L174.213 62.5352H171.899ZM178.52 52.4422L176.01 58.3876L175.548 57.8358H181.529L181.155 58.3876L178.592 52.4422H178.52ZM191.859 62.7132C190.554 62.7132 189.432 62.4521 188.495 61.9299C187.569 61.3959 186.857 60.6483 186.359 59.6871C185.86 58.714 185.611 57.5688 185.611 56.2515C185.611 54.9343 185.86 53.7951 186.359 52.8338C186.857 51.8726 187.569 51.1309 188.495 50.6088C189.432 50.0747 190.554 49.8077 191.859 49.8077C192.737 49.8077 193.527 49.9323 194.227 50.1815C194.939 50.4307 195.55 50.7986 196.06 51.2852L195.313 53.1008C194.755 52.6499 194.215 52.3295 193.693 52.1396C193.182 51.9379 192.595 51.837 191.93 51.837C190.661 51.837 189.688 52.2227 189.011 52.994C188.347 53.7535 188.014 54.8394 188.014 56.2515C188.014 57.6637 188.347 58.7555 189.011 59.5269C189.688 60.2982 190.661 60.6839 191.93 60.6839C192.595 60.6839 193.182 60.589 193.693 60.3991C194.215 60.1973 194.755 59.8651 195.313 59.4022L196.06 61.2179C195.55 61.6926 194.939 62.0605 194.227 62.3215C193.527 62.5826 192.737 62.7132 191.859 62.7132ZM197.85 62.5352V49.9857H206.306V51.7836H200.058V55.2547H205.896V57.0704H200.058V60.7195H206.306V62.5352H197.85Z" fill="#030B05"/>
<circle cx="190.941" cy="107.938" r="11.8671" fill="#F0F0F0"/>
<g clip-path="url(#clip0_207_10080)">
<rect x="183.524" y="100.828" width="14.8338" height="14.8338" rx="7.41692" fill="#DE2A2D"/>
<rect x="183.524" y="100.828" width="14.5846" height="14.5846" rx="7.29231" fill="#DE2A2D"/>
<circle cx="190.941" cy="108.245" r="2.22508" fill="white"/>
</g>
<path d="M155.894 134.349C154.904 134.349 154.167 134.097 153.683 133.591C153.205 133.086 152.966 132.342 152.966 131.359V126.935H153.818V131.317C153.818 132.072 153.984 132.639 154.316 133.02C154.648 133.401 155.174 133.591 155.894 133.591C156.573 133.591 157.088 133.401 157.441 133.02C157.794 132.639 157.971 132.072 157.971 131.317V126.935H158.822V131.359C158.822 132.342 158.573 133.086 158.075 133.591C157.583 134.097 156.856 134.349 155.894 134.349ZM160.499 136.499V130.248C160.499 130.054 160.489 129.857 160.468 129.656C160.454 129.448 160.437 129.244 160.416 129.043H161.226L161.34 130.279H161.216C161.326 129.87 161.551 129.549 161.891 129.313C162.23 129.071 162.635 128.95 163.105 128.95C163.576 128.95 163.981 129.057 164.32 129.272C164.666 129.486 164.936 129.794 165.13 130.196C165.324 130.597 165.421 131.082 165.421 131.65C165.421 132.21 165.324 132.691 165.13 133.093C164.943 133.494 164.677 133.806 164.331 134.027C163.985 134.242 163.576 134.349 163.105 134.349C162.642 134.349 162.24 134.232 161.901 133.996C161.562 133.761 161.337 133.439 161.226 133.031H161.34V136.499H160.499ZM162.939 133.664C163.438 133.664 163.832 133.494 164.123 133.155C164.421 132.809 164.57 132.307 164.57 131.65C164.57 130.985 164.421 130.483 164.123 130.144C163.832 129.798 163.438 129.625 162.939 129.625C162.448 129.625 162.053 129.798 161.756 130.144C161.465 130.483 161.319 130.985 161.319 131.65C161.319 132.307 161.465 132.809 161.756 133.155C162.053 133.494 162.448 133.664 162.939 133.664ZM166.725 134.256V126.613H167.566V134.256H166.725ZM171.339 134.349C170.84 134.349 170.404 134.242 170.03 134.027C169.663 133.806 169.379 133.494 169.179 133.093C168.978 132.684 168.878 132.203 168.878 131.65C168.878 131.089 168.978 130.608 169.179 130.206C169.379 129.805 169.663 129.497 170.03 129.282C170.404 129.061 170.84 128.95 171.339 128.95C171.844 128.95 172.28 129.061 172.647 129.282C173.021 129.497 173.308 129.805 173.509 130.206C173.716 130.608 173.82 131.089 173.82 131.65C173.82 132.203 173.716 132.684 173.509 133.093C173.308 133.494 173.021 133.806 172.647 134.027C172.28 134.242 171.844 134.349 171.339 134.349ZM171.339 133.664C171.837 133.664 172.232 133.494 172.522 133.155C172.813 132.809 172.958 132.307 172.958 131.65C172.958 130.985 172.81 130.483 172.512 130.144C172.221 129.798 171.83 129.625 171.339 129.625C170.847 129.625 170.456 129.798 170.165 130.144C169.874 130.483 169.729 130.985 169.729 131.65C169.729 132.307 169.874 132.809 170.165 133.155C170.456 133.494 170.847 133.664 171.339 133.664ZM177.115 134.349C176.651 134.349 176.246 134.242 175.9 134.027C175.554 133.806 175.284 133.494 175.09 133.093C174.903 132.691 174.81 132.21 174.81 131.65C174.81 131.082 174.903 130.597 175.09 130.196C175.284 129.794 175.554 129.486 175.9 129.272C176.246 129.057 176.651 128.95 177.115 128.95C177.586 128.95 177.991 129.071 178.33 129.313C178.676 129.549 178.904 129.87 179.015 130.279H178.89L179.005 129.043H179.815C179.794 129.244 179.773 129.448 179.752 129.656C179.738 129.857 179.732 130.054 179.732 130.248V134.256H178.89V133.031H179.005C178.894 133.439 178.666 133.761 178.319 133.996C177.973 134.232 177.572 134.349 177.115 134.349ZM177.281 133.664C177.779 133.664 178.174 133.494 178.465 133.155C178.756 132.809 178.901 132.307 178.901 131.65C178.901 130.985 178.756 130.483 178.465 130.144C178.174 129.798 177.779 129.625 177.281 129.625C176.79 129.625 176.395 129.798 176.097 130.144C175.807 130.483 175.661 130.985 175.661 131.65C175.661 132.307 175.807 132.809 176.097 133.155C176.395 133.494 176.79 133.664 177.281 133.664ZM183.331 134.349C182.874 134.349 182.472 134.242 182.126 134.027C181.78 133.806 181.51 133.494 181.316 133.093C181.129 132.691 181.036 132.21 181.036 131.65C181.036 131.082 181.129 130.597 181.316 130.196C181.51 129.794 181.78 129.486 182.126 129.272C182.472 129.057 182.874 128.95 183.331 128.95C183.801 128.95 184.206 129.067 184.546 129.303C184.892 129.538 185.124 129.857 185.241 130.258H185.117V126.613H185.958V134.256H185.127V133.01H185.241C185.13 133.425 184.902 133.754 184.556 133.996C184.21 134.232 183.801 134.349 183.331 134.349ZM183.507 133.664C183.999 133.664 184.393 133.494 184.691 133.155C184.989 132.809 185.137 132.307 185.137 131.65C185.137 130.985 184.989 130.483 184.691 130.144C184.393 129.798 183.999 129.625 183.507 129.625C183.016 129.625 182.621 129.798 182.323 130.144C182.033 130.483 181.887 130.985 181.887 131.65C181.887 132.307 182.033 132.809 182.323 133.155C182.621 133.494 183.016 133.664 183.507 133.664ZM192.192 134.256V130.84L192.378 131.421L189.346 126.935H190.343L192.752 130.58H192.534L194.933 126.935H195.888L192.867 131.421L193.053 130.84V134.256H192.192ZM197.916 134.349C197.418 134.349 196.982 134.242 196.608 134.027C196.241 133.806 195.957 133.494 195.757 133.093C195.556 132.684 195.455 132.203 195.455 131.65C195.455 131.089 195.556 130.608 195.757 130.206C195.957 129.805 196.241 129.497 196.608 129.282C196.982 129.061 197.418 128.95 197.916 128.95C198.422 128.95 198.858 129.061 199.225 129.282C199.598 129.497 199.886 129.805 200.087 130.206C200.294 130.608 200.398 131.089 200.398 131.65C200.398 132.203 200.294 132.684 200.087 133.093C199.886 133.494 199.598 133.806 199.225 134.027C198.858 134.242 198.422 134.349 197.916 134.349ZM197.916 133.664C198.415 133.664 198.809 133.494 199.1 133.155C199.391 132.809 199.536 132.307 199.536 131.65C199.536 130.985 199.387 130.483 199.09 130.144C198.799 129.798 198.408 129.625 197.916 129.625C197.425 129.625 197.034 129.798 196.743 130.144C196.452 130.483 196.307 130.985 196.307 131.65C196.307 132.307 196.452 132.809 196.743 133.155C197.034 133.494 197.425 133.664 197.916 133.664ZM203.547 134.349C202.931 134.349 202.464 134.18 202.145 133.841C201.834 133.501 201.678 132.982 201.678 132.283V129.043H202.519V132.262C202.519 132.74 202.616 133.093 202.81 133.321C203.004 133.543 203.305 133.654 203.713 133.654C204.17 133.654 204.537 133.505 204.814 133.207C205.091 132.909 205.229 132.511 205.229 132.013V129.043H206.071V134.256H205.25V133.083H205.385C205.24 133.484 205.004 133.796 204.679 134.017C204.361 134.239 203.983 134.349 203.547 134.349ZM207.682 134.256V130.3C207.682 130.092 207.675 129.881 207.661 129.666C207.654 129.452 207.64 129.244 207.619 129.043H208.429L208.533 130.31L208.388 130.32C208.457 130.009 208.578 129.753 208.751 129.552C208.924 129.351 209.128 129.202 209.364 129.106C209.599 129.002 209.845 128.95 210.101 128.95C210.205 128.95 210.295 128.953 210.371 128.96C210.454 128.967 210.53 128.984 210.599 129.012L210.589 129.76C210.485 129.725 210.388 129.704 210.298 129.697C210.215 129.684 210.118 129.677 210.007 129.677C209.703 129.677 209.436 129.749 209.208 129.895C208.986 130.04 208.817 130.227 208.699 130.455C208.588 130.684 208.533 130.926 208.533 131.182V134.256H207.682ZM214.275 134.256V126.935H218.844V127.641H215.137V130.206H218.616V130.912H215.137V134.256H214.275ZM220.013 134.256V129.043H220.854V134.256H220.013ZM219.909 127.86V126.915H220.947V127.86H219.909ZM222.487 134.256V126.613H223.328V134.256H222.487ZM227.277 134.349C226.46 134.349 225.816 134.114 225.345 133.643C224.875 133.166 224.639 132.504 224.639 131.66C224.639 131.113 224.743 130.639 224.951 130.237C225.158 129.829 225.449 129.514 225.823 129.292C226.197 129.064 226.626 128.95 227.111 128.95C227.588 128.95 227.99 129.05 228.315 129.251C228.64 129.452 228.89 129.739 229.063 130.113C229.236 130.48 229.322 130.916 229.322 131.421V131.733H225.283V131.203H228.772L228.595 131.338C228.595 130.784 228.471 130.352 228.222 130.04C227.972 129.729 227.602 129.573 227.111 129.573C226.591 129.573 226.186 129.756 225.896 130.123C225.605 130.483 225.46 130.971 225.46 131.587V131.681C225.46 132.331 225.619 132.826 225.937 133.166C226.263 133.498 226.716 133.664 227.297 133.664C227.609 133.664 227.9 133.619 228.17 133.529C228.447 133.432 228.71 133.276 228.959 133.062L229.25 133.654C229.021 133.875 228.73 134.048 228.377 134.173C228.031 134.29 227.664 134.349 227.277 134.349Z" fill="#A21F22"/>
<g clip-path="url(#clip1_207_10080)">
<rect x="345.954" y="100.828" width="14.8338" height="14.8338" rx="7.41692" fill="#F0F0F0"/>
<rect x="345.954" y="100.828" width="14.5846" height="14.5846" rx="7.29231" fill="#F0F0F0"/>
<circle cx="353.245" cy="108.118" r="2.678" fill="#262626"/>
</g>
<path d="M320.584 134.562V127.242H321.331L324.27 133.877H323.969L326.907 127.242H327.655V134.562H326.866V128.353H327.177L324.405 134.562H323.834L321.051 128.353H321.363V134.562H320.584ZM331.377 134.656C330.913 134.656 330.508 134.549 330.162 134.334C329.816 134.113 329.546 133.801 329.352 133.4C329.165 132.998 329.071 132.517 329.071 131.956C329.071 131.389 329.165 130.904 329.352 130.502C329.546 130.101 329.816 129.793 330.162 129.578C330.508 129.364 330.913 129.256 331.377 129.256C331.847 129.256 332.252 129.378 332.591 129.62C332.938 129.855 333.166 130.177 333.277 130.586H333.152L333.266 129.35H334.076C334.056 129.551 334.035 129.755 334.014 129.963C334 130.163 333.993 130.361 333.993 130.554V134.562H333.152V133.337H333.266C333.156 133.746 332.927 134.068 332.581 134.303C332.235 134.538 331.833 134.656 331.377 134.656ZM331.543 133.971C332.041 133.971 332.436 133.801 332.726 133.462C333.017 133.116 333.163 132.614 333.163 131.956C333.163 131.292 333.017 130.79 332.726 130.451C332.436 130.104 332.041 129.931 331.543 129.931C331.051 129.931 330.657 130.104 330.359 130.451C330.068 130.79 329.923 131.292 329.923 131.956C329.923 132.614 330.068 133.116 330.359 133.462C330.657 133.801 331.051 133.971 331.543 133.971ZM335.619 136.805V130.554C335.619 130.361 335.609 130.163 335.588 129.963C335.574 129.755 335.557 129.551 335.536 129.35H336.346L336.46 130.586H336.336C336.447 130.177 336.672 129.855 337.011 129.62C337.35 129.378 337.755 129.256 338.226 129.256C338.696 129.256 339.101 129.364 339.441 129.578C339.787 129.793 340.057 130.101 340.251 130.502C340.444 130.904 340.541 131.389 340.541 131.956C340.541 132.517 340.444 132.998 340.251 133.4C340.064 133.801 339.797 134.113 339.451 134.334C339.105 134.549 338.696 134.656 338.226 134.656C337.762 134.656 337.36 134.538 337.021 134.303C336.682 134.068 336.457 133.746 336.346 133.337H336.46V136.805H335.619ZM338.06 133.971C338.558 133.971 338.953 133.801 339.243 133.462C339.541 133.116 339.69 132.614 339.69 131.956C339.69 131.292 339.541 130.79 339.243 130.451C338.953 130.104 338.558 129.931 338.06 129.931C337.568 129.931 337.174 130.104 336.876 130.451C336.585 130.79 336.44 131.292 336.44 131.956C336.44 132.614 336.585 133.116 336.876 133.462C337.174 133.801 337.568 133.971 338.06 133.971ZM341.846 136.805V130.554C341.846 130.361 341.835 130.163 341.814 129.963C341.801 129.755 341.783 129.551 341.762 129.35H342.572L342.687 130.586H342.562C342.673 130.177 342.898 129.855 343.237 129.62C343.576 129.378 343.981 129.256 344.452 129.256C344.923 129.256 345.328 129.364 345.667 129.578C346.013 129.793 346.283 130.101 346.477 130.502C346.671 130.904 346.767 131.389 346.767 131.956C346.767 132.517 346.671 132.998 346.477 133.4C346.29 133.801 346.023 134.113 345.677 134.334C345.331 134.549 344.923 134.656 344.452 134.656C343.988 134.656 343.587 134.538 343.247 134.303C342.908 134.068 342.683 133.746 342.572 133.337H342.687V136.805H341.846ZM344.286 133.971C344.784 133.971 345.179 133.801 345.469 133.462C345.767 133.116 345.916 132.614 345.916 131.956C345.916 131.292 345.767 130.79 345.469 130.451C345.179 130.104 344.784 129.931 344.286 129.931C343.794 129.931 343.4 130.104 343.102 130.451C342.811 130.79 342.666 131.292 342.666 131.956C342.666 132.614 342.811 133.116 343.102 133.462C343.4 133.801 343.794 133.971 344.286 133.971ZM348.072 134.562V129.35H348.913V134.562H348.072ZM347.968 128.166V127.221H349.006V128.166H347.968ZM350.546 134.562V130.554C350.546 130.361 350.536 130.163 350.515 129.963C350.501 129.755 350.484 129.551 350.463 129.35H351.273L351.377 130.492H351.252C351.404 130.091 351.647 129.786 351.979 129.578C352.318 129.364 352.709 129.256 353.152 129.256C353.768 129.256 354.232 129.423 354.544 129.755C354.862 130.08 355.021 130.596 355.021 131.302V134.562H354.18V131.354C354.18 130.862 354.08 130.506 353.879 130.284C353.685 130.056 353.381 129.942 352.965 129.942C352.481 129.942 352.097 130.091 351.813 130.388C351.529 130.686 351.387 131.084 351.387 131.582V134.562H350.546ZM358.925 136.878C358.475 136.878 358.06 136.823 357.679 136.712C357.298 136.601 356.956 136.432 356.651 136.203L356.9 135.57C357.115 135.722 357.326 135.843 357.534 135.933C357.741 136.023 357.956 136.089 358.177 136.13C358.399 136.179 358.634 136.203 358.883 136.203C359.396 136.203 359.783 136.068 360.046 135.798C360.309 135.528 360.441 135.144 360.441 134.646V133.119H360.545C360.434 133.528 360.206 133.853 359.859 134.095C359.513 134.331 359.108 134.448 358.645 134.448C358.167 134.448 357.752 134.344 357.399 134.137C357.052 133.922 356.782 133.621 356.589 133.233C356.402 132.839 356.308 132.375 356.308 131.842C356.308 131.316 356.402 130.859 356.589 130.471C356.782 130.084 357.052 129.786 357.399 129.578C357.752 129.364 358.167 129.256 358.645 129.256C359.115 129.256 359.52 129.374 359.859 129.609C360.206 129.845 360.434 130.17 360.545 130.586L360.441 130.482L360.534 129.35H361.355C361.327 129.551 361.306 129.755 361.292 129.963C361.279 130.163 361.272 130.361 361.272 130.554V134.531C361.272 135.307 361.071 135.892 360.669 136.286C360.275 136.681 359.693 136.878 358.925 136.878ZM358.8 133.763C359.306 133.763 359.704 133.597 359.994 133.265C360.285 132.925 360.431 132.451 360.431 131.842C360.431 131.233 360.285 130.762 359.994 130.43C359.704 130.098 359.306 129.931 358.8 129.931C358.302 129.931 357.904 130.098 357.606 130.43C357.309 130.762 357.16 131.233 357.16 131.842C357.16 132.451 357.309 132.925 357.606 133.265C357.904 133.597 358.302 133.763 358.8 133.763ZM367.567 134.656C367.11 134.656 366.709 134.549 366.363 134.334C366.016 134.113 365.746 133.801 365.553 133.4C365.366 132.998 365.272 132.517 365.272 131.956C365.272 131.389 365.366 130.904 365.553 130.502C365.746 130.101 366.016 129.793 366.363 129.578C366.709 129.364 367.11 129.256 367.567 129.256C368.038 129.256 368.443 129.374 368.782 129.609C369.128 129.845 369.36 130.163 369.478 130.565H369.353V126.92H370.194V134.562H369.363V133.316H369.478C369.367 133.732 369.138 134.061 368.792 134.303C368.446 134.538 368.038 134.656 367.567 134.656ZM367.744 133.971C368.235 133.971 368.63 133.801 368.927 133.462C369.225 133.116 369.374 132.614 369.374 131.956C369.374 131.292 369.225 130.79 368.927 130.451C368.63 130.104 368.235 129.931 367.744 129.931C367.252 129.931 366.858 130.104 366.56 130.451C366.269 130.79 366.124 131.292 366.124 131.956C366.124 132.614 366.269 133.116 366.56 133.462C366.858 133.801 367.252 133.971 367.744 133.971ZM373.804 134.656C373.34 134.656 372.935 134.549 372.589 134.334C372.243 134.113 371.973 133.801 371.779 133.4C371.592 132.998 371.498 132.517 371.498 131.956C371.498 131.389 371.592 130.904 371.779 130.502C371.973 130.101 372.243 129.793 372.589 129.578C372.935 129.364 373.34 129.256 373.804 129.256C374.274 129.256 374.679 129.378 375.019 129.62C375.365 129.855 375.593 130.177 375.704 130.586H375.579L375.693 129.35H376.503C376.483 129.551 376.462 129.755 376.441 129.963C376.427 130.163 376.42 130.361 376.42 130.554V134.562H375.579V133.337H375.693C375.583 133.746 375.354 134.068 375.008 134.303C374.662 134.538 374.261 134.656 373.804 134.656ZM373.97 133.971C374.468 133.971 374.863 133.801 375.154 133.462C375.444 133.116 375.59 132.614 375.59 131.956C375.59 131.292 375.444 130.79 375.154 130.451C374.863 130.104 374.468 129.931 373.97 129.931C373.478 129.931 373.084 130.104 372.786 130.451C372.495 130.79 372.35 131.292 372.35 131.956C372.35 132.614 372.495 133.116 372.786 133.462C373.084 133.801 373.478 133.971 373.97 133.971ZM379.895 134.656C379.383 134.656 378.991 134.511 378.721 134.22C378.451 133.922 378.316 133.476 378.316 132.88V130.004H377.299V129.35H378.316V127.927L379.158 127.688V129.35H380.653V130.004H379.158V132.787C379.158 133.202 379.227 133.5 379.365 133.68C379.511 133.853 379.725 133.939 380.009 133.939C380.141 133.939 380.258 133.929 380.362 133.908C380.466 133.881 380.559 133.849 380.642 133.815V134.521C380.546 134.562 380.428 134.594 380.289 134.614C380.158 134.642 380.026 134.656 379.895 134.656ZM383.66 134.656C383.196 134.656 382.791 134.549 382.445 134.334C382.099 134.113 381.829 133.801 381.635 133.4C381.448 132.998 381.355 132.517 381.355 131.956C381.355 131.389 381.448 130.904 381.635 130.502C381.829 130.101 382.099 129.793 382.445 129.578C382.791 129.364 383.196 129.256 383.66 129.256C384.131 129.256 384.536 129.378 384.875 129.62C385.221 129.855 385.449 130.177 385.56 130.586H385.436L385.55 129.35H386.36C386.339 129.551 386.318 129.755 386.297 129.963C386.284 130.163 386.277 130.361 386.277 130.554V134.562H385.436V133.337H385.55C385.439 133.746 385.211 134.068 384.865 134.303C384.518 134.538 384.117 134.656 383.66 134.656ZM383.826 133.971C384.325 133.971 384.719 133.801 385.01 133.462C385.301 133.116 385.446 132.614 385.446 131.956C385.446 131.292 385.301 130.79 385.01 130.451C384.719 130.104 384.325 129.931 383.826 129.931C383.335 129.931 382.94 130.104 382.642 130.451C382.352 130.79 382.206 131.292 382.206 131.956C382.206 132.614 382.352 133.116 382.642 133.462C382.94 133.801 383.335 133.971 383.826 133.971Z" fill="#ACACAC"/>
<rect x="223.576" y="107.329" width="97.1616" height="1.48338" fill="#F0F0F0"/>
<rect x="386.007" y="107.329" width="97.1616" height="1.48338" fill="#F0F0F0"/>
<g clip-path="url(#clip2_207_10080)">
<rect x="508.385" y="100.828" width="14.8338" height="14.8338" rx="7.41692" fill="#F0F0F0"/>
<rect x="508.385" y="100.828" width="14.5846" height="14.5846" rx="7.29231" fill="#F0F0F0"/>
<circle cx="515.677" cy="108.118" r="2.678" fill="#262626"/>
</g>
<path d="M502.756 130.897C502.756 130.122 502.888 129.457 503.151 128.903C503.421 128.343 503.805 127.91 504.303 127.605C504.809 127.301 505.414 127.149 506.12 127.149C506.806 127.149 507.401 127.301 507.906 127.605C508.412 127.91 508.799 128.343 509.069 128.903C509.346 129.457 509.485 130.118 509.485 130.887C509.485 131.662 509.346 132.33 509.069 132.891C508.793 133.451 508.401 133.888 507.896 134.199C507.398 134.504 506.806 134.656 506.12 134.656C505.414 134.656 504.812 134.504 504.314 134.199C503.815 133.888 503.431 133.451 503.161 132.891C502.891 132.33 502.756 131.665 502.756 130.897ZM503.659 130.897C503.659 131.839 503.867 132.576 504.283 133.109C504.698 133.635 505.311 133.898 506.12 133.898C506.896 133.898 507.498 133.635 507.927 133.109C508.363 132.576 508.581 131.839 508.581 130.897C508.581 129.949 508.367 129.215 507.938 128.696C507.508 128.17 506.903 127.907 506.12 127.907C505.311 127.907 504.698 128.17 504.283 128.696C503.867 129.215 503.659 129.949 503.659 130.897ZM510.933 134.562V130.606C510.933 130.399 510.926 130.188 510.912 129.973C510.905 129.758 510.891 129.551 510.871 129.35H511.68L511.784 130.617L511.639 130.627C511.708 130.316 511.829 130.059 512.002 129.859C512.175 129.658 512.38 129.509 512.615 129.412C512.85 129.308 513.096 129.256 513.352 129.256C513.456 129.256 513.546 129.26 513.622 129.267C513.705 129.274 513.781 129.291 513.851 129.319L513.84 130.066C513.736 130.032 513.64 130.011 513.55 130.004C513.466 129.99 513.37 129.983 513.259 129.983C512.954 129.983 512.688 130.056 512.459 130.201C512.238 130.347 512.068 130.534 511.95 130.762C511.84 130.991 511.784 131.233 511.784 131.489V134.562H510.933ZM516.638 134.656C516.181 134.656 515.78 134.549 515.433 134.334C515.087 134.113 514.817 133.801 514.623 133.4C514.437 132.998 514.343 132.517 514.343 131.956C514.343 131.389 514.437 130.904 514.623 130.502C514.817 130.101 515.087 129.793 515.433 129.578C515.78 129.364 516.181 129.256 516.638 129.256C517.109 129.256 517.514 129.374 517.853 129.609C518.199 129.845 518.431 130.163 518.548 130.565H518.424V126.92H519.265V134.562H518.434V133.316H518.548C518.438 133.732 518.209 134.061 517.863 134.303C517.517 134.538 517.109 134.656 516.638 134.656ZM516.814 133.971C517.306 133.971 517.7 133.801 517.998 133.462C518.296 133.116 518.445 132.614 518.445 131.956C518.445 131.292 518.296 130.79 517.998 130.451C517.7 130.104 517.306 129.931 516.814 129.931C516.323 129.931 515.928 130.104 515.631 130.451C515.34 130.79 515.195 131.292 515.195 131.956C515.195 132.614 515.34 133.116 515.631 133.462C515.928 133.801 516.323 133.971 516.814 133.971ZM523.207 134.656C522.39 134.656 521.746 134.421 521.275 133.95C520.805 133.472 520.569 132.811 520.569 131.967C520.569 131.42 520.673 130.946 520.881 130.544C521.088 130.136 521.379 129.821 521.753 129.599C522.127 129.371 522.556 129.256 523.041 129.256C523.518 129.256 523.92 129.357 524.245 129.558C524.57 129.758 524.82 130.046 524.993 130.419C525.166 130.786 525.252 131.222 525.252 131.728V132.039H521.213V131.51H524.702L524.525 131.645C524.525 131.091 524.401 130.658 524.152 130.347C523.902 130.035 523.532 129.879 523.041 129.879C522.521 129.879 522.116 130.063 521.826 130.43C521.535 130.79 521.39 131.278 521.39 131.894V131.987C521.39 132.638 521.549 133.133 521.867 133.472C522.193 133.804 522.646 133.971 523.227 133.971C523.539 133.971 523.83 133.926 524.1 133.836C524.377 133.739 524.64 133.583 524.889 133.368L525.18 133.96C524.951 134.182 524.66 134.355 524.307 134.479C523.961 134.597 523.594 134.656 523.207 134.656ZM526.519 134.562V130.606C526.519 130.399 526.512 130.188 526.498 129.973C526.491 129.758 526.477 129.551 526.456 129.35H527.266L527.37 130.617L527.225 130.627C527.294 130.316 527.415 130.059 527.588 129.859C527.761 129.658 527.965 129.509 528.201 129.412C528.436 129.308 528.682 129.256 528.938 129.256C529.042 129.256 529.132 129.26 529.208 129.267C529.291 129.274 529.367 129.291 529.436 129.319L529.426 130.066C529.322 130.032 529.225 130.011 529.135 130.004C529.052 129.99 528.955 129.983 528.844 129.983C528.54 129.983 528.273 130.056 528.045 130.201C527.823 130.347 527.654 130.534 527.536 130.762C527.425 130.991 527.37 131.233 527.37 131.489V134.562H526.519Z" fill="#ACACAC"/>
<rect x="56.3237" y="164.911" width="594.095" height="280.276" fill="#FFFBFB"/>
<g opacity="0.3">
<path opacity="0.3" d="M365.63 209.056C363.941 209.055 362.321 208.383 361.126 207.188C359.932 205.994 359.26 204.374 359.258 202.684V193.837H330.785C328.579 193.837 326.464 194.713 324.904 196.273C323.345 197.832 322.469 199.947 322.469 202.153V252.283C322.472 254.486 323.35 256.598 324.909 258.155C326.468 259.712 328.581 260.586 330.785 260.586H364.963C366.055 260.587 367.137 260.372 368.146 259.954C369.155 259.537 370.073 258.924 370.845 258.152C371.618 257.38 372.23 256.463 372.648 255.454C373.067 254.444 373.282 253.363 373.282 252.271V209.044L365.63 209.056Z" fill="#ACACAC"/>
</g>
<path d="M373.281 209.056H365.63C363.94 209.055 362.321 208.383 361.126 207.188C359.931 205.994 359.259 204.374 359.258 202.684V193.837L373.281 209.056Z" fill="#ACACAC"/>
<path d="M379.311 246.562H340.67C337.929 246.562 335.707 248.784 335.707 251.524V263.045C335.707 265.786 337.929 268.008 340.67 268.008H379.311C382.051 268.008 384.273 265.786 384.273 263.045V251.524C384.273 248.784 382.051 246.562 379.311 246.562Z" fill="#ACACAC"/>
<path d="M347.343 259.697V261.938H345.028V259.697H347.343Z" fill="white"/>
<path d="M355.658 253.523C356.44 254.156 356.971 255.047 357.157 256.036H354.79C354.632 255.625 354.352 255.273 353.989 255.025C353.607 254.775 353.157 254.646 352.701 254.657C352.399 254.648 352.1 254.708 351.826 254.833C351.551 254.958 351.309 255.144 351.118 255.377C350.694 255.926 350.48 256.61 350.516 257.303C350.48 257.993 350.694 258.673 351.118 259.219C351.31 259.45 351.552 259.635 351.827 259.759C352.101 259.883 352.4 259.942 352.701 259.932C353.157 259.944 353.607 259.815 353.989 259.565C354.352 259.322 354.634 258.975 354.796 258.57H357.163C356.974 259.555 356.443 260.443 355.664 261.076C354.829 261.718 353.794 262.046 352.741 262.003C351.911 262.021 351.092 261.815 350.37 261.407C349.694 261.015 349.146 260.435 348.794 259.738C348.414 258.98 348.223 258.141 348.238 257.293C348.222 256.445 348.413 255.605 348.794 254.846C349.146 254.148 349.694 253.568 350.37 253.177C351.092 252.769 351.911 252.563 352.741 252.581C353.793 252.545 354.825 252.878 355.658 253.523Z" fill="white"/>
<path d="M364.691 260.68C364.424 261.105 364.043 261.446 363.59 261.663C363.04 261.92 362.437 262.045 361.829 262.027C360.914 262.064 360.012 261.798 359.264 261.27C358.934 261.022 358.663 260.702 358.473 260.335C358.282 259.968 358.177 259.563 358.164 259.15H360.547C360.563 259.462 360.697 259.755 360.92 259.972C361.142 260.179 361.436 260.291 361.739 260.281C361.988 260.294 362.232 260.21 362.419 260.046C362.501 259.966 362.565 259.869 362.607 259.763C362.65 259.657 362.67 259.543 362.666 259.428C362.669 259.32 362.651 259.213 362.611 259.112C362.572 259.011 362.513 258.919 362.438 258.841C362.275 258.676 362.082 258.545 361.869 258.455C361.64 258.353 361.328 258.232 360.927 258.093C360.436 257.932 359.957 257.738 359.493 257.512C359.111 257.315 358.783 257.028 358.538 256.675C358.256 256.247 358.116 255.741 358.139 255.229C358.127 254.721 358.272 254.222 358.556 253.801C358.848 253.39 359.25 253.069 359.715 252.874C360.254 252.656 360.831 252.551 361.412 252.565C362.29 252.518 363.157 252.777 363.865 253.297C364.168 253.543 364.416 253.849 364.592 254.196C364.769 254.543 364.871 254.923 364.891 255.312H362.472C362.442 255.04 362.325 254.786 362.138 254.586C362.041 254.494 361.927 254.423 361.802 254.377C361.678 254.331 361.545 254.311 361.412 254.317C361.181 254.305 360.954 254.38 360.775 254.527C360.692 254.606 360.627 254.702 360.585 254.809C360.543 254.916 360.526 255.031 360.534 255.145C360.532 255.248 360.549 255.35 360.586 255.445C360.624 255.541 360.679 255.628 360.75 255.701C360.904 255.863 361.089 255.99 361.294 256.075C361.511 256.171 361.826 256.295 362.221 256.443C362.721 256.604 363.207 256.802 363.677 257.036C364.062 257.244 364.393 257.538 364.644 257.896C364.931 258.329 365.073 258.842 365.049 259.36C365.051 259.825 364.927 260.281 364.691 260.68Z" fill="white"/>
<path d="M368.032 252.686L370.297 259.648L372.562 252.686H374.957L371.737 261.938H368.844L365.637 252.686H368.032Z" fill="white"/>
<path d="M359.208 240.439H336.541C334.579 240.439 332.984 238.486 332.984 236.081V219.644C332.984 217.243 334.579 215.29 336.541 215.29H359.208C361.171 215.29 362.765 217.243 362.765 219.644V236.081C362.765 238.486 361.171 240.439 359.208 240.439ZM336.541 217.515C335.583 217.515 334.801 218.47 334.801 219.644V236.081C334.801 237.256 335.583 238.211 336.541 238.211H359.208C360.166 238.211 360.945 237.256 360.945 236.081V219.644C360.945 218.47 360.166 217.515 359.208 217.515H336.541Z" fill="#ACACAC"/>
<path d="M361.857 230.54H333.894V232.768H361.857V230.54Z" fill="#ACACAC"/>
<path d="M361.857 222.901H333.894V225.129H361.857V222.901Z" fill="#ACACAC"/>
<path d="M354.698 216.401H352.47V239.322H354.698V216.401Z" fill="#ACACAC"/>
<path d="M343.281 216.401H341.053V239.322H343.281V216.401Z" fill="#ACACAC"/>
<path d="M142.481 320.608V314.734L142.837 315.82L137.604 308.059H139.527L143.549 314.182H143.14L147.163 308.059H149.032L143.799 315.82L144.137 314.734V320.608H142.481ZM152.472 320.769C151.593 320.769 150.834 320.585 150.193 320.217C149.552 319.837 149.054 319.303 148.698 318.615C148.342 317.915 148.164 317.084 148.164 316.123C148.164 315.173 148.342 314.354 148.698 313.666C149.054 312.966 149.552 312.432 150.193 312.064C150.834 311.684 151.593 311.494 152.472 311.494C153.35 311.494 154.109 311.684 154.75 312.064C155.403 312.432 155.901 312.966 156.245 313.666C156.601 314.354 156.779 315.173 156.779 316.123C156.779 317.084 156.601 317.915 156.245 318.615C155.901 319.303 155.403 319.837 154.75 320.217C154.109 320.585 153.35 320.769 152.472 320.769ZM152.472 319.487C153.279 319.487 153.925 319.202 154.412 318.633C154.898 318.063 155.142 317.226 155.142 316.123C155.142 315.019 154.898 314.188 154.412 313.631C153.925 313.073 153.279 312.794 152.472 312.794C151.653 312.794 151 313.073 150.514 313.631C150.039 314.188 149.802 315.019 149.802 316.123C149.802 317.226 150.039 318.063 150.514 318.633C151 319.202 151.653 319.487 152.472 319.487ZM162.14 320.769C161.061 320.769 160.248 320.478 159.702 319.896C159.168 319.315 158.901 318.419 158.901 317.208V311.655H160.521V317.173C160.521 317.956 160.681 318.532 161.001 318.9C161.322 319.267 161.82 319.451 162.496 319.451C163.232 319.451 163.826 319.208 164.276 318.722C164.739 318.223 164.971 317.564 164.971 316.746V311.655H166.591V320.608H165.024V318.633H165.256C165.006 319.309 164.609 319.837 164.063 320.217C163.517 320.585 162.876 320.769 162.14 320.769ZM177.426 320.769C176.643 320.769 175.954 320.585 175.361 320.217C174.768 319.849 174.305 319.315 173.973 318.615C173.64 317.915 173.474 317.084 173.474 316.123C173.474 315.161 173.64 314.337 173.973 313.648C174.305 312.948 174.768 312.414 175.361 312.046C175.954 311.678 176.643 311.494 177.426 311.494C178.209 311.494 178.891 311.69 179.473 312.082C180.066 312.474 180.464 313.013 180.666 313.702H180.452V307.507H182.072V320.608H180.47V318.526H180.666C180.476 319.226 180.084 319.778 179.491 320.181C178.909 320.573 178.221 320.769 177.426 320.769ZM177.8 319.487C178.607 319.487 179.253 319.202 179.74 318.633C180.238 318.063 180.488 317.226 180.488 316.123C180.488 315.019 180.238 314.188 179.74 313.631C179.253 313.073 178.607 312.794 177.8 312.794C176.993 312.794 176.34 313.073 175.842 313.631C175.355 314.188 175.112 315.019 175.112 316.123C175.112 317.226 175.355 318.063 175.842 318.633C176.34 319.202 176.993 319.487 177.8 319.487ZM188.56 320.769C187.681 320.769 186.922 320.585 186.281 320.217C185.64 319.837 185.142 319.303 184.786 318.615C184.43 317.915 184.252 317.084 184.252 316.123C184.252 315.173 184.43 314.354 184.786 313.666C185.142 312.966 185.64 312.432 186.281 312.064C186.922 311.684 187.681 311.494 188.56 311.494C189.438 311.494 190.197 311.684 190.838 312.064C191.491 312.432 191.989 312.966 192.333 313.666C192.689 314.354 192.867 315.173 192.867 316.123C192.867 317.084 192.689 317.915 192.333 318.615C191.989 319.303 191.491 319.837 190.838 320.217C190.197 320.585 189.438 320.769 188.56 320.769ZM188.56 319.487C189.367 319.487 190.013 319.202 190.5 318.633C190.986 318.063 191.23 317.226 191.23 316.123C191.23 315.019 190.986 314.188 190.5 313.631C190.013 313.073 189.367 312.794 188.56 312.794C187.741 312.794 187.088 313.073 186.602 313.631C186.127 314.188 185.889 315.019 185.889 316.123C185.889 317.226 186.127 318.063 186.602 318.633C187.088 319.202 187.741 319.487 188.56 319.487ZM195.042 320.608V313.773C195.042 313.429 195.03 313.079 195.006 312.723C194.983 312.367 194.947 312.011 194.9 311.655H196.466L196.644 313.577H196.43C196.703 312.901 197.125 312.385 197.694 312.029C198.264 311.672 198.929 311.494 199.688 311.494C200.744 311.494 201.539 311.785 202.073 312.367C202.607 312.936 202.874 313.826 202.874 315.037V320.608H201.254V315.126C201.254 314.307 201.094 313.72 200.774 313.364C200.453 312.996 199.955 312.812 199.279 312.812C198.472 312.812 197.831 313.055 197.356 313.542C196.893 314.028 196.662 314.687 196.662 315.517V320.608H195.042ZM205.764 312.135L205.034 311.566C205.366 311.222 205.592 310.901 205.71 310.604C205.829 310.296 205.888 309.987 205.888 309.679L206.351 310.017H204.945V308.059H206.921V309.412C206.921 309.922 206.838 310.397 206.671 310.836C206.505 311.275 206.203 311.708 205.764 312.135ZM212.747 320.769C211.81 320.769 211.098 320.513 210.611 320.003C210.137 319.481 209.899 318.698 209.899 317.653V312.901H208.155V311.655H209.899V309.252L211.519 308.807V311.655H214.047V312.901H211.519V317.511C211.519 318.199 211.638 318.692 211.875 318.989C212.124 319.273 212.48 319.416 212.943 319.416C213.18 319.416 213.382 319.398 213.548 319.362C213.726 319.315 213.886 319.261 214.029 319.202V320.537C213.851 320.608 213.643 320.662 213.406 320.697C213.18 320.745 212.961 320.769 212.747 320.769ZM220.439 320.608V307.507H222.059V313.595H221.828C222.089 312.907 222.51 312.385 223.091 312.029C223.673 311.672 224.343 311.494 225.103 311.494C226.183 311.494 226.978 311.785 227.488 312.367C228.01 312.948 228.271 313.826 228.271 315.001V320.608H226.652V315.09C226.652 314.295 226.497 313.72 226.189 313.364C225.88 312.996 225.376 312.812 224.676 312.812C223.893 312.812 223.258 313.055 222.771 313.542C222.296 314.028 222.059 314.675 222.059 315.482V320.608H220.439ZM234.339 320.769C233.556 320.769 232.868 320.585 232.274 320.217C231.681 319.849 231.218 319.315 230.886 318.615C230.554 317.915 230.387 317.084 230.387 316.123C230.387 315.161 230.554 314.337 230.886 313.648C231.218 312.948 231.681 312.414 232.274 312.046C232.868 311.678 233.556 311.494 234.339 311.494C235.134 311.494 235.822 311.696 236.404 312.1C236.997 312.491 237.389 313.031 237.579 313.72H237.365L237.561 311.655H239.127C239.092 312.011 239.056 312.367 239.021 312.723C238.997 313.079 238.985 313.429 238.985 313.773V320.608H237.365V318.561H237.561C237.371 319.238 236.98 319.778 236.386 320.181C235.805 320.573 235.122 320.769 234.339 320.769ZM234.713 319.487C235.52 319.487 236.167 319.202 236.653 318.633C237.14 318.063 237.383 317.226 237.383 316.123C237.383 315.019 237.14 314.188 236.653 313.631C236.167 313.073 235.52 312.794 234.713 312.794C233.906 312.794 233.253 313.073 232.755 313.631C232.268 314.188 232.025 315.019 232.025 316.123C232.025 317.226 232.268 318.063 232.755 318.633C233.241 319.202 233.894 319.487 234.713 319.487ZM244.247 320.608L240.42 311.655H242.164L245.279 319.345H244.781L247.949 311.655H249.605L245.76 320.608H244.247ZM255.058 320.769C253.634 320.769 252.507 320.359 251.676 319.54C250.857 318.722 250.448 317.594 250.448 316.158C250.448 315.209 250.626 314.39 250.982 313.702C251.35 313.002 251.854 312.462 252.495 312.082C253.136 311.69 253.883 311.494 254.738 311.494C255.557 311.494 256.251 311.672 256.82 312.029C257.39 312.373 257.823 312.865 258.12 313.506C258.417 314.147 258.565 314.906 258.565 315.784V316.318H251.712V315.357H257.461L257.159 315.589C257.159 314.663 256.951 313.945 256.536 313.435C256.132 312.924 255.533 312.669 254.738 312.669C253.871 312.669 253.201 312.972 252.726 313.577C252.252 314.171 252.014 314.983 252.014 316.016V316.176C252.014 317.268 252.281 318.093 252.815 318.65C253.361 319.208 254.115 319.487 255.076 319.487C255.61 319.487 256.108 319.41 256.571 319.256C257.034 319.101 257.479 318.846 257.906 318.49L258.44 319.612C258.037 319.979 257.532 320.264 256.927 320.466C256.334 320.668 255.711 320.769 255.058 320.769ZM268.793 320.769C268.01 320.769 267.322 320.585 266.728 320.217C266.135 319.849 265.672 319.315 265.34 318.615C265.007 317.915 264.841 317.084 264.841 316.123C264.841 315.161 265.007 314.337 265.34 313.648C265.672 312.948 266.135 312.414 266.728 312.046C267.322 311.678 268.01 311.494 268.793 311.494C269.588 311.494 270.276 311.696 270.858 312.1C271.451 312.491 271.843 313.031 272.033 313.72H271.819L272.015 311.655H273.581C273.546 312.011 273.51 312.367 273.475 312.723C273.451 313.079 273.439 313.429 273.439 313.773V320.608H271.819V318.561H272.015C271.825 319.238 271.433 319.778 270.84 320.181C270.259 320.573 269.576 320.769 268.793 320.769ZM269.167 319.487C269.974 319.487 270.621 319.202 271.107 318.633C271.594 318.063 271.837 317.226 271.837 316.123C271.837 315.019 271.594 314.188 271.107 313.631C270.621 313.073 269.974 312.794 269.167 312.794C268.36 312.794 267.707 313.073 267.209 313.631C266.722 314.188 266.479 315.019 266.479 316.123C266.479 317.226 266.722 318.063 267.209 318.633C267.695 319.202 268.348 319.487 269.167 319.487ZM276.153 320.608V313.773C276.153 313.429 276.141 313.079 276.117 312.723C276.094 312.367 276.058 312.011 276.011 311.655H277.577L277.755 313.577H277.541C277.814 312.901 278.236 312.385 278.805 312.029C279.375 311.672 280.039 311.494 280.799 311.494C281.855 311.494 282.65 311.785 283.184 312.367C283.718 312.936 283.985 313.826 283.985 315.037V320.608H282.365V315.126C282.365 314.307 282.205 313.72 281.885 313.364C281.564 312.996 281.066 312.812 280.39 312.812C279.583 312.812 278.942 313.055 278.467 313.542C278.004 314.028 277.773 314.687 277.773 315.517V320.608H276.153ZM286.246 324.649L285.872 323.332C286.43 323.201 286.892 323.047 287.26 322.869C287.628 322.703 287.937 322.483 288.186 322.21C288.435 321.938 288.655 321.593 288.845 321.178L289.29 320.11L289.254 320.786L285.356 311.655H287.1L290.215 319.327H289.752L292.868 311.655H294.541L290.429 321.303C290.18 321.884 289.907 322.371 289.61 322.762C289.325 323.154 289.011 323.474 288.667 323.724C288.334 323.973 287.966 324.169 287.563 324.311C287.159 324.453 286.72 324.566 286.246 324.649ZM304.097 320.769C303.16 320.769 302.448 320.513 301.961 320.003C301.486 319.481 301.249 318.698 301.249 317.653V312.901H299.504V311.655H301.249V309.252L302.869 308.807V311.655H305.396V312.901H302.869V317.511C302.869 318.199 302.987 318.692 303.225 318.989C303.474 319.273 303.83 319.416 304.293 319.416C304.53 319.416 304.732 319.398 304.898 319.362C305.076 319.315 305.236 319.261 305.379 319.202V320.537C305.201 320.608 304.993 320.662 304.756 320.697C304.53 320.745 304.311 320.769 304.097 320.769ZM307.078 320.608V313.844C307.078 313.488 307.066 313.126 307.042 312.758C307.03 312.379 307.001 312.011 306.953 311.655H308.52L308.715 313.898L308.448 313.915C308.567 313.369 308.769 312.919 309.054 312.563C309.35 312.195 309.7 311.928 310.104 311.761C310.519 311.583 310.946 311.494 311.385 311.494C311.575 311.494 311.736 311.5 311.866 311.512C311.997 311.524 312.127 311.554 312.258 311.601L312.222 313.043C312.044 312.972 311.878 312.93 311.724 312.919C311.581 312.895 311.403 312.883 311.19 312.883C310.667 312.883 310.217 313.002 309.837 313.239C309.469 313.476 309.184 313.791 308.982 314.182C308.792 314.574 308.698 314.995 308.698 315.446V320.608H307.078ZM317.015 320.769C316.231 320.769 315.543 320.585 314.95 320.217C314.356 319.849 313.894 319.315 313.561 318.615C313.229 317.915 313.063 317.084 313.063 316.123C313.063 315.161 313.229 314.337 313.561 313.648C313.894 312.948 314.356 312.414 314.95 312.046C315.543 311.678 316.231 311.494 317.015 311.494C317.81 311.494 318.498 311.696 319.079 312.1C319.673 312.491 320.064 313.031 320.254 313.72H320.041L320.236 311.655H321.803C321.767 312.011 321.732 312.367 321.696 312.723C321.672 313.079 321.661 313.429 321.661 313.773V320.608H320.041V318.561H320.236C320.047 319.238 319.655 319.778 319.062 320.181C318.48 320.573 317.798 320.769 317.015 320.769ZM317.388 319.487C318.195 319.487 318.842 319.202 319.329 318.633C319.815 318.063 320.058 317.226 320.058 316.123C320.058 315.019 319.815 314.188 319.329 313.631C318.842 313.073 318.195 312.794 317.388 312.794C316.581 312.794 315.929 313.073 315.43 313.631C314.944 314.188 314.701 315.019 314.701 316.123C314.701 317.226 314.944 318.063 315.43 318.633C315.917 319.202 316.57 319.487 317.388 319.487ZM328.22 320.769C327.329 320.769 326.558 320.585 325.905 320.217C325.253 319.837 324.742 319.297 324.375 318.597C324.019 317.885 323.841 317.042 323.841 316.069C323.841 315.108 324.024 314.289 324.392 313.613C324.76 312.924 325.271 312.402 325.923 312.046C326.576 311.678 327.341 311.494 328.22 311.494C328.801 311.494 329.365 311.595 329.911 311.797C330.456 311.987 330.901 312.266 331.246 312.634L330.694 313.773C330.35 313.441 329.97 313.197 329.555 313.043C329.139 312.877 328.73 312.794 328.326 312.794C327.448 312.794 326.76 313.079 326.261 313.648C325.763 314.206 325.514 315.019 325.514 316.087C325.514 317.167 325.763 317.998 326.261 318.579C326.76 319.161 327.448 319.451 328.326 319.451C328.718 319.451 329.121 319.374 329.537 319.22C329.952 319.066 330.338 318.822 330.694 318.49L331.246 319.612C330.89 319.991 330.433 320.282 329.875 320.484C329.329 320.674 328.777 320.769 328.22 320.769ZM337.125 320.769C335.701 320.769 334.574 320.359 333.743 319.54C332.924 318.722 332.515 317.594 332.515 316.158C332.515 315.209 332.693 314.39 333.049 313.702C333.417 313.002 333.921 312.462 334.562 312.082C335.203 311.69 335.95 311.494 336.805 311.494C337.624 311.494 338.318 311.672 338.887 312.029C339.457 312.373 339.89 312.865 340.187 313.506C340.484 314.147 340.632 314.906 340.632 315.784V316.318H333.779V315.357H339.528L339.226 315.589C339.226 314.663 339.018 313.945 338.603 313.435C338.199 312.924 337.6 312.669 336.805 312.669C335.939 312.669 335.268 312.972 334.793 313.577C334.319 314.171 334.081 314.983 334.081 316.016V316.176C334.081 317.268 334.348 318.093 334.882 318.65C335.428 319.208 336.182 319.487 337.143 319.487C337.677 319.487 338.175 319.41 338.638 319.256C339.101 319.101 339.546 318.846 339.973 318.49L340.507 319.612C340.104 319.979 339.6 320.264 338.994 320.466C338.401 320.668 337.778 320.769 337.125 320.769ZM345.775 320.769C345.051 320.769 344.375 320.674 343.746 320.484C343.129 320.294 342.618 320.021 342.215 319.665L342.731 318.544C343.17 318.876 343.651 319.131 344.173 319.309C344.707 319.475 345.253 319.558 345.811 319.558C346.487 319.558 346.997 319.434 347.341 319.184C347.697 318.935 347.875 318.603 347.875 318.188C347.875 317.855 347.763 317.588 347.537 317.386C347.312 317.185 346.956 317.036 346.469 316.941L344.778 316.603C344.019 316.425 343.443 316.14 343.051 315.749C342.672 315.345 342.482 314.829 342.482 314.2C342.482 313.678 342.624 313.215 342.909 312.812C343.194 312.396 343.597 312.076 344.119 311.851C344.654 311.613 345.277 311.494 345.989 311.494C346.641 311.494 347.246 311.589 347.804 311.779C348.374 311.969 348.843 312.248 349.21 312.616L348.676 313.702C348.309 313.381 347.893 313.138 347.43 312.972C346.979 312.794 346.517 312.705 346.042 312.705C345.354 312.705 344.843 312.841 344.511 313.114C344.179 313.375 344.013 313.72 344.013 314.147C344.013 314.467 344.114 314.734 344.315 314.948C344.517 315.15 344.843 315.304 345.294 315.411L346.985 315.749C347.78 315.915 348.38 316.188 348.783 316.568C349.187 316.947 349.388 317.452 349.388 318.081C349.388 318.638 349.234 319.119 348.926 319.523C348.629 319.926 348.208 320.235 347.662 320.448C347.128 320.662 346.499 320.769 345.775 320.769ZM355.988 324.649L355.614 323.332C356.172 323.201 356.635 323.047 357.003 322.869C357.37 322.703 357.679 322.483 357.928 322.21C358.177 321.938 358.397 321.593 358.587 321.178L359.032 320.11L358.996 320.786L355.098 311.655H356.842L359.957 319.327H359.495L362.61 311.655H364.283L360.171 321.303C359.922 321.884 359.649 322.371 359.352 322.762C359.067 323.154 358.753 323.474 358.409 323.724C358.077 323.973 357.709 324.169 357.305 324.311C356.902 324.453 356.463 324.566 355.988 324.649ZM369.736 320.769C368.312 320.769 367.185 320.359 366.354 319.54C365.536 318.722 365.126 317.594 365.126 316.158C365.126 315.209 365.304 314.39 365.66 313.702C366.028 313.002 366.532 312.462 367.173 312.082C367.814 311.69 368.562 311.494 369.416 311.494C370.235 311.494 370.929 311.672 371.499 312.029C372.068 312.373 372.502 312.865 372.798 313.506C373.095 314.147 373.243 314.906 373.243 315.784V316.318H366.39V315.357H372.14L371.837 315.589C371.837 314.663 371.629 313.945 371.214 313.435C370.81 312.924 370.211 312.669 369.416 312.669C368.55 312.669 367.879 312.972 367.405 313.577C366.93 314.171 366.693 314.983 366.693 316.016V316.176C366.693 317.268 366.96 318.093 367.494 318.65C368.04 319.208 368.793 319.487 369.754 319.487C370.288 319.487 370.787 319.41 371.25 319.256C371.712 319.101 372.157 318.846 372.585 318.49L373.119 319.612C372.715 319.979 372.211 320.264 371.606 320.466C371.012 320.668 370.389 320.769 369.736 320.769ZM378.689 320.769C377.752 320.769 377.04 320.513 376.553 320.003C376.078 319.481 375.841 318.698 375.841 317.653V312.901H374.097V311.655H375.841V309.252L377.461 308.807V311.655H379.989V312.901H377.461V317.511C377.461 318.199 377.58 318.692 377.817 318.989C378.066 319.273 378.422 319.416 378.885 319.416C379.122 319.416 379.324 319.398 379.49 319.362C379.668 319.315 379.828 319.261 379.971 319.202V320.537C379.793 320.608 379.585 320.662 379.348 320.697C379.122 320.745 378.903 320.769 378.689 320.769ZM381.919 317.226L381.42 308.059H383.432L382.915 317.226H381.919ZM381.438 320.608V318.633H383.414V320.608H381.438ZM394.879 320.769C393.87 320.769 392.962 320.638 392.155 320.377C391.348 320.116 390.648 319.748 390.055 319.273L390.624 317.956C391.04 318.265 391.461 318.526 391.888 318.739C392.315 318.941 392.772 319.095 393.259 319.202C393.757 319.297 394.297 319.345 394.879 319.345C395.911 319.345 396.671 319.161 397.157 318.793C397.656 318.413 397.905 317.915 397.905 317.297C397.905 316.763 397.733 316.354 397.389 316.069C397.044 315.784 396.445 315.559 395.591 315.393L393.686 315.001C392.535 314.764 391.675 314.378 391.105 313.844C390.547 313.298 390.268 312.563 390.268 311.637C390.268 310.889 390.464 310.237 390.856 309.679C391.259 309.109 391.811 308.67 392.511 308.362C393.223 308.053 394.054 307.899 395.003 307.899C395.882 307.899 396.694 308.029 397.442 308.29C398.19 308.551 398.819 308.937 399.329 309.447L398.759 310.711C398.225 310.225 397.65 309.875 397.033 309.661C396.427 309.436 395.739 309.323 394.968 309.323C394.03 309.323 393.289 309.525 392.743 309.928C392.197 310.332 391.924 310.877 391.924 311.566C391.924 312.112 392.096 312.545 392.44 312.865C392.784 313.174 393.354 313.411 394.149 313.577L396.054 313.951C397.264 314.188 398.148 314.562 398.706 315.072C399.275 315.583 399.56 316.289 399.56 317.191C399.56 317.903 399.37 318.532 398.991 319.078C398.611 319.612 398.071 320.027 397.371 320.324C396.671 320.62 395.84 320.769 394.879 320.769ZM405.807 320.769C404.383 320.769 403.256 320.359 402.425 319.54C401.606 318.722 401.197 317.594 401.197 316.158C401.197 315.209 401.375 314.39 401.731 313.702C402.099 313.002 402.603 312.462 403.244 312.082C403.885 311.69 404.632 311.494 405.487 311.494C406.305 311.494 407 311.672 407.569 312.029C408.139 312.373 408.572 312.865 408.869 313.506C409.165 314.147 409.314 314.906 409.314 315.784V316.318H402.461V315.357H408.21L407.908 315.589C407.908 314.663 407.7 313.945 407.285 313.435C406.881 312.924 406.282 312.669 405.487 312.669C404.62 312.669 403.95 312.972 403.475 313.577C403 314.171 402.763 314.983 402.763 316.016V316.176C402.763 317.268 403.03 318.093 403.564 318.65C404.11 319.208 404.864 319.487 405.825 319.487C406.359 319.487 406.857 319.41 407.32 319.256C407.783 319.101 408.228 318.846 408.655 318.49L409.189 319.612C408.786 319.979 408.281 320.264 407.676 320.466C407.083 320.668 406.46 320.769 405.807 320.769ZM411.431 320.608V307.507H413.051V320.608H411.431ZM419.835 320.769C418.411 320.769 417.284 320.359 416.453 319.54C415.635 318.722 415.225 317.594 415.225 316.158C415.225 315.209 415.403 314.39 415.759 313.702C416.127 313.002 416.631 312.462 417.272 312.082C417.913 311.69 418.661 311.494 419.515 311.494C420.334 311.494 421.028 311.672 421.598 312.029C422.167 312.373 422.6 312.865 422.897 313.506C423.194 314.147 423.342 314.906 423.342 315.784V316.318H416.489V315.357H422.239L421.936 315.589C421.936 314.663 421.728 313.945 421.313 313.435C420.909 312.924 420.31 312.669 419.515 312.669C418.649 312.669 417.978 312.972 417.504 313.577C417.029 314.171 416.792 314.983 416.792 316.016V316.176C416.792 317.268 417.059 318.093 417.593 318.65C418.138 319.208 418.892 319.487 419.853 319.487C420.387 319.487 420.886 319.41 421.349 319.256C421.811 319.101 422.256 318.846 422.684 318.49L423.218 319.612C422.814 319.979 422.31 320.264 421.705 320.466C421.111 320.668 420.488 320.769 419.835 320.769ZM429.304 320.769C428.414 320.769 427.643 320.585 426.99 320.217C426.337 319.837 425.827 319.297 425.459 318.597C425.103 317.885 424.925 317.042 424.925 316.069C424.925 315.108 425.109 314.289 425.477 313.613C425.845 312.924 426.355 312.402 427.008 312.046C427.66 311.678 428.426 311.494 429.304 311.494C429.885 311.494 430.449 311.595 430.995 311.797C431.541 311.987 431.986 312.266 432.33 312.634L431.778 313.773C431.434 313.441 431.054 313.197 430.639 313.043C430.224 312.877 429.814 312.794 429.411 312.794C428.533 312.794 427.844 313.079 427.346 313.648C426.848 314.206 426.598 315.019 426.598 316.087C426.598 317.167 426.848 317.998 427.346 318.579C427.844 319.161 428.533 319.451 429.411 319.451C429.802 319.451 430.206 319.374 430.621 319.22C431.037 319.066 431.422 318.822 431.778 318.49L432.33 319.612C431.974 319.991 431.517 320.282 430.959 320.484C430.414 320.674 429.862 320.769 429.304 320.769ZM437.671 320.769C436.734 320.769 436.022 320.513 435.535 320.003C435.06 319.481 434.823 318.698 434.823 317.653V312.901H433.079V311.655H434.823V309.252L436.443 308.807V311.655H438.971V312.901H436.443V317.511C436.443 318.199 436.562 318.692 436.799 318.989C437.048 319.273 437.404 319.416 437.867 319.416C438.104 319.416 438.306 319.398 438.472 319.362C438.65 319.315 438.81 319.261 438.953 319.202V320.537C438.775 320.608 438.567 320.662 438.33 320.697C438.104 320.745 437.885 320.769 437.671 320.769ZM445.096 320.608V318.633H447.072V320.608H445.096ZM454.571 320.769C453.313 320.769 452.233 320.508 451.331 319.985C450.441 319.463 449.759 318.722 449.284 317.76C448.81 316.787 448.572 315.642 448.572 314.325C448.572 313.008 448.81 311.868 449.284 310.907C449.759 309.946 450.441 309.204 451.331 308.682C452.233 308.16 453.313 307.899 454.571 307.899C455.473 307.899 456.274 308.035 456.974 308.308C457.674 308.569 458.286 308.955 458.808 309.465L458.202 310.8C457.633 310.302 457.069 309.946 456.511 309.732C455.966 309.507 455.331 309.394 454.607 309.394C453.218 309.394 452.156 309.821 451.42 310.676C450.685 311.53 450.317 312.746 450.317 314.325C450.317 315.903 450.685 317.125 451.42 317.992C452.156 318.846 453.218 319.273 454.607 319.273C455.331 319.273 455.966 319.167 456.511 318.953C457.069 318.727 457.633 318.366 458.202 317.867L458.808 319.184C458.286 319.695 457.668 320.086 456.956 320.359C456.256 320.632 455.461 320.769 454.571 320.769ZM465.142 320.769C464.134 320.769 463.226 320.638 462.419 320.377C461.612 320.116 460.912 319.748 460.319 319.273L460.888 317.956C461.303 318.265 461.725 318.526 462.152 318.739C462.579 318.941 463.036 319.095 463.523 319.202C464.021 319.297 464.561 319.345 465.142 319.345C466.175 319.345 466.934 319.161 467.421 318.793C467.919 318.413 468.169 317.915 468.169 317.297C468.169 316.763 467.997 316.354 467.652 316.069C467.308 315.784 466.709 315.559 465.854 315.393L463.95 315.001C462.799 314.764 461.938 314.378 461.369 313.844C460.811 313.298 460.532 312.563 460.532 311.637C460.532 310.889 460.728 310.237 461.12 309.679C461.523 309.109 462.075 308.67 462.775 308.362C463.487 308.053 464.318 307.899 465.267 307.899C466.145 307.899 466.958 308.029 467.706 308.29C468.453 308.551 469.082 308.937 469.593 309.447L469.023 310.711C468.489 310.225 467.913 309.875 467.296 309.661C466.691 309.436 466.003 309.323 465.231 309.323C464.294 309.323 463.552 309.525 463.006 309.928C462.461 310.332 462.188 310.877 462.188 311.566C462.188 312.112 462.36 312.545 462.704 312.865C463.048 313.174 463.618 313.411 464.413 313.577L466.317 313.951C467.528 314.188 468.412 314.562 468.97 315.072C469.539 315.583 469.824 316.289 469.824 317.191C469.824 317.903 469.634 318.532 469.254 319.078C468.875 319.612 468.335 320.027 467.635 320.324C466.934 320.62 466.104 320.769 465.142 320.769ZM475.933 320.608L470.433 308.059H472.231L477.019 319.238H476.414L481.22 308.059H482.947L477.411 320.608H475.933ZM492.342 320.769C491.404 320.769 490.692 320.513 490.206 320.003C489.731 319.481 489.494 318.698 489.494 317.653V312.901H487.749V311.655H489.494V309.252L491.114 308.807V311.655H493.641V312.901H491.114V317.511C491.114 318.199 491.232 318.692 491.47 318.989C491.719 319.273 492.075 319.416 492.538 319.416C492.775 319.416 492.977 319.398 493.143 319.362C493.321 319.315 493.481 319.261 493.624 319.202V320.537C493.446 320.608 493.238 320.662 493.001 320.697C492.775 320.745 492.556 320.769 492.342 320.769ZM499.027 320.769C498.149 320.769 497.39 320.585 496.749 320.217C496.108 319.837 495.609 319.303 495.253 318.615C494.897 317.915 494.719 317.084 494.719 316.123C494.719 315.173 494.897 314.354 495.253 313.666C495.609 312.966 496.108 312.432 496.749 312.064C497.39 311.684 498.149 311.494 499.027 311.494C499.905 311.494 500.665 311.684 501.306 312.064C501.958 312.432 502.457 312.966 502.801 313.666C503.157 314.354 503.335 315.173 503.335 316.123C503.335 317.084 503.157 317.915 502.801 318.615C502.457 319.303 501.958 319.837 501.306 320.217C500.665 320.585 499.905 320.769 499.027 320.769ZM499.027 319.487C499.834 319.487 500.481 319.202 500.967 318.633C501.454 318.063 501.697 317.226 501.697 316.123C501.697 315.019 501.454 314.188 500.967 313.631C500.481 313.073 499.834 312.794 499.027 312.794C498.208 312.794 497.556 313.073 497.069 313.631C496.594 314.188 496.357 315.019 496.357 316.123C496.357 317.226 496.594 318.063 497.069 318.633C497.556 319.202 498.208 319.487 499.027 319.487ZM515.383 320.769C513.662 320.769 512.381 320.335 511.538 319.469C510.708 318.591 510.292 317.303 510.292 315.606V308.059H511.965V315.553C511.965 316.799 512.238 317.737 512.784 318.366C513.33 318.994 514.196 319.309 515.383 319.309C516.522 319.309 517.377 318.994 517.946 318.366C518.528 317.737 518.819 316.799 518.819 315.553V308.059H520.456V315.606C520.456 317.303 520.029 318.591 519.175 319.469C518.32 320.335 517.056 320.769 515.383 320.769ZM523.258 324.453V313.773C523.258 313.429 523.246 313.079 523.223 312.723C523.199 312.367 523.163 312.011 523.116 311.655H524.682L524.878 313.72H524.682C524.86 313.031 525.24 312.491 525.821 312.1C526.403 311.696 527.097 311.494 527.904 311.494C528.699 311.494 529.393 311.678 529.987 312.046C530.58 312.414 531.037 312.948 531.357 313.648C531.69 314.337 531.856 315.161 531.856 316.123C531.856 317.084 531.69 317.915 531.357 318.615C531.037 319.315 530.58 319.849 529.987 320.217C529.393 320.585 528.699 320.769 527.904 320.769C527.109 320.769 526.421 320.573 525.839 320.181C525.27 319.778 524.884 319.238 524.682 318.561H524.878V324.453H523.258ZM527.53 319.487C528.349 319.487 529.002 319.202 529.488 318.633C529.975 318.063 530.218 317.226 530.218 316.123C530.218 315.019 529.975 314.188 529.488 313.631C529.002 313.073 528.349 312.794 527.53 312.794C526.711 312.794 526.059 313.073 525.572 313.631C525.098 314.188 524.86 315.019 524.86 316.123C524.86 317.226 525.098 318.063 525.572 318.633C526.059 319.202 526.711 319.487 527.53 319.487ZM534.036 320.608V307.507H535.656V320.608H534.036ZM542.138 320.769C541.26 320.769 540.5 320.585 539.86 320.217C539.219 319.837 538.72 319.303 538.364 318.615C538.008 317.915 537.83 317.084 537.83 316.123C537.83 315.173 538.008 314.354 538.364 313.666C538.72 312.966 539.219 312.432 539.86 312.064C540.5 311.684 541.26 311.494 542.138 311.494C543.016 311.494 543.776 311.684 544.416 312.064C545.069 312.432 545.568 312.966 545.912 313.666C546.268 314.354 546.446 315.173 546.446 316.123C546.446 317.084 546.268 317.915 545.912 318.615C545.568 319.303 545.069 319.837 544.416 320.217C543.776 320.585 543.016 320.769 542.138 320.769ZM542.138 319.487C542.945 319.487 543.592 319.202 544.078 318.633C544.565 318.063 544.808 317.226 544.808 316.123C544.808 315.019 544.565 314.188 544.078 313.631C543.592 313.073 542.945 312.794 542.138 312.794C541.319 312.794 540.667 313.073 540.18 313.631C539.705 314.188 539.468 315.019 539.468 316.123C539.468 317.226 539.705 318.063 540.18 318.633C540.667 319.202 541.319 319.487 542.138 319.487ZM552.038 320.769C551.255 320.769 550.567 320.585 549.973 320.217C549.38 319.849 548.917 319.315 548.585 318.615C548.253 317.915 548.086 317.084 548.086 316.123C548.086 315.161 548.253 314.337 548.585 313.648C548.917 312.948 549.38 312.414 549.973 312.046C550.567 311.678 551.255 311.494 552.038 311.494C552.833 311.494 553.522 311.696 554.103 312.1C554.696 312.491 555.088 313.031 555.278 313.72H555.064L555.26 311.655H556.827C556.791 312.011 556.755 312.367 556.72 312.723C556.696 313.079 556.684 313.429 556.684 313.773V320.608H555.064V318.561H555.26C555.07 319.238 554.679 319.778 554.085 320.181C553.504 320.573 552.821 320.769 552.038 320.769ZM552.412 319.487C553.219 319.487 553.866 319.202 554.352 318.633C554.839 318.063 555.082 317.226 555.082 316.123C555.082 315.019 554.839 314.188 554.352 313.631C553.866 313.073 553.219 312.794 552.412 312.794C551.605 312.794 550.952 313.073 550.454 313.631C549.967 314.188 549.724 315.019 549.724 316.123C549.724 317.226 549.967 318.063 550.454 318.633C550.94 319.202 551.593 319.487 552.412 319.487ZM562.816 320.769C562.033 320.769 561.344 320.585 560.751 320.217C560.158 319.849 559.695 319.315 559.363 318.615C559.03 317.915 558.864 317.084 558.864 316.123C558.864 315.161 559.03 314.337 559.363 313.648C559.695 312.948 560.158 312.414 560.751 312.046C561.344 311.678 562.033 311.494 562.816 311.494C563.599 311.494 564.281 311.69 564.863 312.082C565.456 312.474 565.854 313.013 566.056 313.702H565.842V307.507H567.462V320.608H565.86V318.526H566.056C565.866 319.226 565.474 319.778 564.881 320.181C564.299 320.573 563.611 320.769 562.816 320.769ZM563.19 319.487C563.997 319.487 564.643 319.202 565.13 318.633C565.628 318.063 565.878 317.226 565.878 316.123C565.878 315.019 565.628 314.188 565.13 313.631C564.643 313.073 563.997 312.794 563.19 312.794C562.383 312.794 561.73 313.073 561.232 313.631C560.745 314.188 560.502 315.019 560.502 316.123C560.502 317.226 560.745 318.063 561.232 318.633C561.73 319.202 562.383 319.487 563.19 319.487Z" fill="#262626"/>
<path d="M289.676 343.662C289.035 343.662 288.474 343.524 287.994 343.248C287.522 342.963 287.157 342.563 286.899 342.047C286.641 341.522 286.512 340.903 286.512 340.191C286.512 339.47 286.641 338.852 286.899 338.335C287.157 337.819 287.522 337.423 287.994 337.147C288.474 336.862 289.035 336.72 289.676 336.72C290.326 336.72 290.886 336.862 291.358 337.147C291.839 337.423 292.208 337.819 292.466 338.335C292.733 338.852 292.867 339.47 292.867 340.191C292.867 340.903 292.733 341.522 292.466 342.047C292.208 342.563 291.839 342.963 291.358 343.248C290.886 343.524 290.326 343.662 289.676 343.662ZM289.676 342.781C290.317 342.781 290.824 342.563 291.198 342.127C291.572 341.682 291.759 341.037 291.759 340.191C291.759 339.337 291.567 338.691 291.185 338.255C290.811 337.81 290.308 337.588 289.676 337.588C289.044 337.588 288.541 337.81 288.167 338.255C287.794 338.691 287.607 339.337 287.607 340.191C287.607 341.037 287.794 341.682 288.167 342.127C288.541 342.563 289.044 342.781 289.676 342.781ZM294.526 343.542V338.455C294.526 338.188 294.517 337.917 294.499 337.641C294.49 337.365 294.473 337.098 294.446 336.84H295.487L295.621 338.469L295.434 338.482C295.523 338.082 295.679 337.752 295.901 337.494C296.124 337.236 296.386 337.045 296.689 336.92C296.991 336.787 297.307 336.72 297.637 336.72C297.77 336.72 297.886 336.724 297.984 336.733C298.091 336.742 298.189 336.764 298.278 336.8L298.264 337.761C298.131 337.717 298.006 337.69 297.89 337.681C297.784 337.663 297.659 337.654 297.517 337.654C297.125 337.654 296.782 337.748 296.489 337.935C296.204 338.122 295.986 338.362 295.834 338.656C295.692 338.949 295.621 339.261 295.621 339.59V343.542H294.526ZM305.42 343.662C304.833 343.662 304.317 343.524 303.872 343.248C303.427 342.963 303.08 342.563 302.83 342.047C302.59 341.531 302.47 340.912 302.47 340.191C302.47 339.461 302.59 338.838 302.83 338.322C303.08 337.806 303.427 337.41 303.872 337.134C304.317 336.858 304.833 336.72 305.42 336.72C306.026 336.72 306.546 336.871 306.982 337.174C307.427 337.476 307.726 337.886 307.877 338.402H307.717V333.716H308.798V343.542H307.73V341.94H307.877C307.734 342.474 307.441 342.897 306.996 343.208C306.551 343.511 306.026 343.662 305.42 343.662ZM305.647 342.781C306.279 342.781 306.787 342.563 307.169 342.127C307.552 341.682 307.743 341.037 307.743 340.191C307.743 339.337 307.552 338.691 307.169 338.255C306.787 337.81 306.279 337.588 305.647 337.588C305.015 337.588 304.508 337.81 304.125 338.255C303.752 338.691 303.565 339.337 303.565 340.191C303.565 341.037 303.752 341.682 304.125 342.127C304.508 342.563 305.015 342.781 305.647 342.781ZM310.862 343.542V338.455C310.862 338.188 310.853 337.917 310.835 337.641C310.826 337.365 310.809 337.098 310.782 336.84H311.823L311.957 338.469L311.77 338.482C311.859 338.082 312.015 337.752 312.237 337.494C312.46 337.236 312.722 337.045 313.025 336.92C313.327 336.787 313.643 336.72 313.973 336.72C314.106 336.72 314.222 336.724 314.32 336.733C314.427 336.742 314.525 336.764 314.614 336.8L314.6 337.761C314.467 337.717 314.342 337.69 314.226 337.681C314.12 337.663 313.995 337.654 313.853 337.654C313.461 337.654 313.118 337.748 312.825 337.935C312.54 338.122 312.322 338.362 312.17 338.656C312.028 338.949 311.957 339.261 311.957 339.59V343.542H310.862ZM318.224 343.662C317.627 343.662 317.107 343.524 316.662 343.248C316.216 342.963 315.869 342.563 315.62 342.047C315.38 341.531 315.26 340.912 315.26 340.191C315.26 339.461 315.38 338.838 315.62 338.322C315.869 337.806 316.216 337.41 316.662 337.134C317.107 336.858 317.627 336.72 318.224 336.72C318.829 336.72 319.349 336.876 319.786 337.187C320.231 337.49 320.524 337.904 320.667 338.429H320.506L320.653 336.84H321.695C321.668 337.098 321.641 337.361 321.615 337.628C321.597 337.886 321.588 338.14 321.588 338.389V343.542H320.506V341.967H320.653C320.511 342.492 320.217 342.906 319.772 343.208C319.327 343.511 318.811 343.662 318.224 343.662ZM318.437 342.781C319.078 342.781 319.585 342.563 319.959 342.127C320.333 341.682 320.52 341.037 320.52 340.191C320.52 339.337 320.333 338.691 319.959 338.255C319.585 337.81 319.078 337.588 318.437 337.588C317.805 337.588 317.298 337.81 316.915 338.255C316.541 338.691 316.354 339.337 316.354 340.191C316.354 341.037 316.541 341.682 316.915 342.127C317.298 342.563 317.805 342.781 318.437 342.781ZM326.629 346.519C326.051 346.519 325.517 346.448 325.027 346.306C324.538 346.163 324.097 345.945 323.705 345.651L324.026 344.837C324.302 345.033 324.573 345.189 324.84 345.304C325.107 345.42 325.383 345.505 325.668 345.558C325.953 345.62 326.255 345.651 326.576 345.651C327.234 345.651 327.733 345.478 328.071 345.131C328.409 344.784 328.578 344.29 328.578 343.649V341.686H328.712C328.569 342.211 328.276 342.63 327.831 342.941C327.386 343.244 326.865 343.395 326.269 343.395C325.655 343.395 325.12 343.262 324.667 342.995C324.222 342.719 323.874 342.332 323.625 341.833C323.385 341.326 323.265 340.729 323.265 340.044C323.265 339.368 323.385 338.78 323.625 338.282C323.874 337.783 324.222 337.401 324.667 337.134C325.12 336.858 325.655 336.72 326.269 336.72C326.874 336.72 327.395 336.871 327.831 337.174C328.276 337.476 328.569 337.895 328.712 338.429L328.578 338.295L328.698 336.84H329.753C329.717 337.098 329.691 337.361 329.673 337.628C329.655 337.886 329.646 338.14 329.646 338.389V343.502C329.646 344.499 329.388 345.251 328.872 345.758C328.365 346.265 327.617 346.519 326.629 346.519ZM326.469 342.514C327.119 342.514 327.63 342.3 328.004 341.873C328.378 341.437 328.565 340.827 328.565 340.044C328.565 339.261 328.378 338.656 328.004 338.229C327.63 337.801 327.119 337.588 326.469 337.588C325.828 337.588 325.316 337.801 324.934 338.229C324.551 338.656 324.36 339.261 324.36 340.044C324.36 340.827 324.551 341.437 324.934 341.873C325.316 342.3 325.828 342.514 326.469 342.514ZM337.754 343.662C337.157 343.662 336.637 343.524 336.192 343.248C335.747 342.963 335.4 342.563 335.15 342.047C334.91 341.531 334.79 340.912 334.79 340.191C334.79 339.461 334.91 338.838 335.15 338.322C335.4 337.806 335.747 337.41 336.192 337.134C336.637 336.858 337.157 336.72 337.754 336.72C338.359 336.72 338.88 336.876 339.316 337.187C339.761 337.49 340.054 337.904 340.197 338.429H340.037L340.184 336.84H341.225C341.198 337.098 341.171 337.361 341.145 337.628C341.127 337.886 341.118 338.14 341.118 338.389V343.542H340.037V341.967H340.184C340.041 342.492 339.747 342.906 339.302 343.208C338.857 343.511 338.341 343.662 337.754 343.662ZM337.967 342.781C338.608 342.781 339.116 342.563 339.489 342.127C339.863 341.682 340.05 341.037 340.05 340.191C340.05 339.337 339.863 338.691 339.489 338.255C339.116 337.81 338.608 337.588 337.967 337.588C337.335 337.588 336.828 337.81 336.445 338.255C336.072 338.691 335.885 339.337 335.885 340.191C335.885 341.037 336.072 341.682 336.445 342.127C336.828 342.563 337.335 342.781 337.967 342.781ZM343.209 343.542V338.389C343.209 338.14 343.196 337.886 343.169 337.628C343.151 337.361 343.129 337.098 343.102 336.84H344.143L344.277 338.309H344.117C344.313 337.792 344.624 337.401 345.051 337.134C345.487 336.858 345.99 336.72 346.56 336.72C347.352 336.72 347.948 336.934 348.349 337.361C348.758 337.779 348.963 338.442 348.963 339.35V343.542H347.882V339.417C347.882 338.785 347.752 338.326 347.494 338.042C347.245 337.748 346.854 337.601 346.32 337.601C345.697 337.601 345.203 337.792 344.838 338.175C344.473 338.558 344.29 339.07 344.29 339.71V343.542H343.209ZM353.568 343.662C352.981 343.662 352.464 343.524 352.019 343.248C351.574 342.963 351.227 342.563 350.978 342.047C350.738 341.531 350.618 340.912 350.618 340.191C350.618 339.461 350.738 338.838 350.978 338.322C351.227 337.806 351.574 337.41 352.019 337.134C352.464 336.858 352.981 336.72 353.568 336.72C354.173 336.72 354.694 336.871 355.13 337.174C355.575 337.476 355.873 337.886 356.024 338.402H355.864V333.716H356.946V343.542H355.878V341.94H356.024C355.882 342.474 355.588 342.897 355.143 343.208C354.698 343.511 354.173 343.662 353.568 343.662ZM353.795 342.781C354.427 342.781 354.934 342.563 355.317 342.127C355.7 341.682 355.891 341.037 355.891 340.191C355.891 339.337 355.7 338.691 355.317 338.255C354.934 337.81 354.427 337.588 353.795 337.588C353.163 337.588 352.656 337.81 352.273 338.255C351.899 338.691 351.712 339.337 351.712 340.191C351.712 341.037 351.899 341.682 352.273 342.127C352.656 342.563 353.163 342.781 353.795 342.781ZM365.054 343.662C364.467 343.662 363.95 343.524 363.505 343.248C363.06 342.963 362.713 342.563 362.464 342.047C362.224 341.531 362.104 340.912 362.104 340.191C362.104 339.461 362.224 338.838 362.464 338.322C362.713 337.806 363.06 337.41 363.505 337.134C363.95 336.858 364.467 336.72 365.054 336.72C365.659 336.72 366.18 336.871 366.616 337.174C367.061 337.476 367.359 337.886 367.511 338.402H367.35V333.716H368.432V343.542H367.364V341.94H367.511C367.368 342.474 367.074 342.897 366.629 343.208C366.184 343.511 365.659 343.662 365.054 343.662ZM365.281 342.781C365.913 342.781 366.42 342.563 366.803 342.127C367.186 341.682 367.377 341.037 367.377 340.191C367.377 339.337 367.186 338.691 366.803 338.255C366.42 337.81 365.913 337.588 365.281 337.588C364.649 337.588 364.142 337.81 363.759 338.255C363.385 338.691 363.198 339.337 363.198 340.191C363.198 341.037 363.385 341.682 363.759 342.127C364.142 342.563 364.649 342.781 365.281 342.781ZM370.496 343.542V338.455C370.496 338.188 370.487 337.917 370.469 337.641C370.46 337.365 370.442 337.098 370.416 336.84H371.457L371.591 338.469L371.404 338.482C371.493 338.082 371.648 337.752 371.871 337.494C372.093 337.236 372.356 337.045 372.659 336.92C372.961 336.787 373.277 336.72 373.607 336.72C373.74 336.72 373.856 336.724 373.954 336.733C374.06 336.742 374.158 336.764 374.247 336.8L374.234 337.761C374.1 337.717 373.976 337.69 373.86 337.681C373.753 337.663 373.629 337.654 373.486 337.654C373.095 337.654 372.752 337.748 372.458 337.935C372.174 338.122 371.956 338.362 371.804 338.656C371.662 338.949 371.591 339.261 371.591 339.59V343.542H370.496ZM378.044 343.662C377.404 343.662 376.843 343.524 376.362 343.248C375.891 342.963 375.526 342.563 375.268 342.047C375.009 341.522 374.88 340.903 374.88 340.191C374.88 339.47 375.009 338.852 375.268 338.335C375.526 337.819 375.891 337.423 376.362 337.147C376.843 336.862 377.404 336.72 378.044 336.72C378.694 336.72 379.255 336.862 379.727 337.147C380.207 337.423 380.577 337.819 380.835 338.335C381.102 338.852 381.235 339.47 381.235 340.191C381.235 340.903 381.102 341.522 380.835 342.047C380.577 342.563 380.207 342.963 379.727 343.248C379.255 343.524 378.694 343.662 378.044 343.662ZM378.044 342.781C378.685 342.781 379.193 342.563 379.566 342.127C379.94 341.682 380.127 341.037 380.127 340.191C380.127 339.337 379.936 338.691 379.553 338.255C379.179 337.81 378.676 337.588 378.044 337.588C377.413 337.588 376.91 337.81 376.536 338.255C376.162 338.691 375.975 339.337 375.975 340.191C375.975 341.037 376.162 341.682 376.536 342.127C376.91 342.563 377.413 342.781 378.044 342.781ZM382.921 346.426V338.389C382.921 338.14 382.908 337.886 382.881 337.628C382.863 337.361 382.841 337.098 382.814 336.84H383.856L384.003 338.429H383.842C383.985 337.904 384.274 337.49 384.71 337.187C385.146 336.876 385.667 336.72 386.272 336.72C386.877 336.72 387.398 336.858 387.834 337.134C388.279 337.41 388.626 337.806 388.876 338.322C389.125 338.838 389.249 339.461 389.249 340.191C389.249 340.912 389.125 341.531 388.876 342.047C388.635 342.563 388.293 342.963 387.848 343.248C387.403 343.524 386.877 343.662 386.272 343.662C385.676 343.662 385.16 343.511 384.724 343.208C384.287 342.906 383.998 342.492 383.856 341.967H384.003V346.426H382.921ZM386.059 342.781C386.699 342.781 387.207 342.563 387.581 342.127C387.963 341.682 388.155 341.037 388.155 340.191C388.155 339.337 387.963 338.691 387.581 338.255C387.207 337.81 386.699 337.588 386.059 337.588C385.427 337.588 384.919 337.81 384.537 338.255C384.163 338.691 383.976 339.337 383.976 340.191C383.976 341.037 384.163 341.682 384.537 342.127C384.919 342.563 385.427 342.781 386.059 342.781ZM394.407 343.542V333.716H395.489V338.322H395.315C395.502 337.797 395.814 337.401 396.25 337.134C396.695 336.858 397.206 336.72 397.785 336.72C398.586 336.72 399.182 336.938 399.574 337.374C399.966 337.801 400.161 338.451 400.161 339.323V343.542H399.08V339.39C399.08 338.767 398.955 338.313 398.706 338.028C398.466 337.743 398.074 337.601 397.531 337.601C396.908 337.601 396.41 337.792 396.036 338.175C395.671 338.558 395.489 339.061 395.489 339.684V343.542H394.407ZM405.207 343.662C404.157 343.662 403.329 343.36 402.724 342.754C402.119 342.14 401.816 341.29 401.816 340.204C401.816 339.501 401.95 338.892 402.217 338.375C402.484 337.85 402.857 337.445 403.338 337.16C403.819 336.867 404.37 336.72 404.993 336.72C405.608 336.72 406.124 336.849 406.542 337.107C406.96 337.365 407.281 337.735 407.503 338.215C407.726 338.687 407.837 339.248 407.837 339.897V340.298H402.644V339.617H407.129L406.903 339.791C406.903 339.078 406.742 338.522 406.422 338.122C406.102 337.721 405.625 337.521 404.993 337.521C404.326 337.521 403.805 337.757 403.431 338.229C403.058 338.691 402.871 339.319 402.871 340.111V340.231C402.871 341.068 403.075 341.704 403.485 342.14C403.903 342.567 404.486 342.781 405.234 342.781C405.634 342.781 406.008 342.723 406.355 342.607C406.711 342.483 407.049 342.283 407.37 342.007L407.744 342.768C407.45 343.052 407.076 343.275 406.622 343.435C406.177 343.586 405.705 343.662 405.207 343.662ZM409.465 343.542V338.455C409.465 338.188 409.456 337.917 409.438 337.641C409.429 337.365 409.412 337.098 409.385 336.84H410.426L410.56 338.469L410.373 338.482C410.462 338.082 410.618 337.752 410.84 337.494C411.063 337.236 411.325 337.045 411.628 336.92C411.93 336.787 412.246 336.72 412.576 336.72C412.709 336.72 412.825 336.724 412.923 336.733C413.03 336.742 413.128 336.764 413.217 336.8L413.203 337.761C413.07 337.717 412.945 337.69 412.829 337.681C412.723 337.663 412.598 337.654 412.456 337.654C412.064 337.654 411.721 337.748 411.428 337.935C411.143 338.122 410.925 338.362 410.773 338.656C410.631 338.949 410.56 339.261 410.56 339.59V343.542H409.465ZM417.241 343.662C416.19 343.662 415.363 343.36 414.758 342.754C414.152 342.14 413.85 341.29 413.85 340.204C413.85 339.501 413.983 338.892 414.25 338.375C414.517 337.85 414.891 337.445 415.372 337.16C415.852 336.867 416.404 336.72 417.027 336.72C417.641 336.72 418.157 336.849 418.576 337.107C418.994 337.365 419.314 337.735 419.537 338.215C419.759 338.687 419.871 339.248 419.871 339.897V340.298H414.677V339.617H419.163L418.936 339.791C418.936 339.078 418.776 338.522 418.456 338.122C418.135 337.721 417.659 337.521 417.027 337.521C416.36 337.521 415.839 337.757 415.465 338.229C415.091 338.691 414.904 339.319 414.904 340.111V340.231C414.904 341.068 415.109 341.704 415.518 342.14C415.937 342.567 416.52 342.781 417.267 342.781C417.668 342.781 418.042 342.723 418.389 342.607C418.745 342.483 419.083 342.283 419.403 342.007L419.777 342.768C419.484 343.052 419.11 343.275 418.656 343.435C418.211 343.586 417.739 343.662 417.241 343.662Z" fill="#434343"/>
<rect x="271.045" y="382.144" width="164.653" height="34.1178" rx="17.0589" fill="#ACACAC"/>
<path d="M297.941 403.702V395.336H299.282L302.356 402.254H301.988L305.062 395.336H306.391V403.702H305.002V397.496H305.43L302.617 403.702H301.703L298.891 397.496H299.33V403.702H297.941ZM307.092 403.702L310.878 395.336H312.16L315.993 403.702H314.438L313.417 401.352L314.035 401.768H309.015L309.656 401.352L308.635 403.702H307.092ZM311.507 396.974L309.834 400.937L309.525 400.569H313.512L313.263 400.937L311.554 396.974H311.507ZM316.681 403.702V395.336H320.395C321.313 395.336 322.013 395.557 322.496 396C322.978 396.443 323.22 397.053 323.22 397.828C323.22 398.595 322.978 399.205 322.496 399.655C322.013 400.106 321.313 400.332 320.395 400.332H318.212V403.702H316.681ZM318.212 399.121H320.217C320.724 399.121 321.103 399.011 321.357 398.789C321.61 398.56 321.736 398.239 321.736 397.828C321.736 397.417 321.61 397.1 321.357 396.879C321.103 396.649 320.724 396.534 320.217 396.534H318.212V399.121ZM324.347 403.702V395.336H328.062C328.979 395.336 329.679 395.557 330.162 396C330.645 396.443 330.886 397.053 330.886 397.828C330.886 398.595 330.645 399.205 330.162 399.655C329.679 400.106 328.979 400.332 328.062 400.332H325.878V403.702H324.347ZM325.878 399.121H327.884C328.39 399.121 328.77 399.011 329.023 398.789C329.276 398.56 329.403 398.239 329.403 397.828C329.403 397.417 329.276 397.1 329.023 396.879C328.77 396.649 328.39 396.534 327.884 396.534H325.878V399.121ZM332.014 403.702V395.336H333.544V403.702H332.014ZM335.149 403.702V395.336H336.3L341.153 401.614H340.845V395.336H342.269V403.702H341.118L336.276 397.424H336.573V403.702H335.149ZM347.904 403.821C346.963 403.821 346.172 403.647 345.531 403.299C344.89 402.951 344.407 402.456 344.083 401.815C343.759 401.174 343.597 400.415 343.597 399.537C343.597 398.651 343.771 397.887 344.119 397.246C344.467 396.598 344.965 396.099 345.614 395.751C346.271 395.395 347.058 395.217 347.975 395.217C348.585 395.217 349.119 395.3 349.578 395.466C350.036 395.625 350.44 395.858 350.788 396.167L350.278 397.353C350.025 397.155 349.783 396.997 349.554 396.879C349.324 396.76 349.087 396.677 348.842 396.629C348.597 396.574 348.312 396.546 347.987 396.546C347.07 396.546 346.373 396.807 345.899 397.33C345.432 397.844 345.199 398.583 345.199 399.549C345.199 400.514 345.42 401.25 345.863 401.756C346.314 402.262 347.018 402.515 347.975 402.515C348.3 402.515 348.624 402.484 348.949 402.421C349.281 402.357 349.605 402.266 349.922 402.148L349.637 402.788V400.284H347.679V399.169H350.907V403.192C350.519 403.39 350.056 403.544 349.518 403.655C348.98 403.765 348.442 403.821 347.904 403.821ZM355.436 403.702V395.336H358.474C359.431 395.336 360.238 395.502 360.895 395.834C361.559 396.159 362.061 396.633 362.402 397.258C362.742 397.875 362.912 398.627 362.912 399.513C362.912 400.391 362.742 401.143 362.402 401.768C362.061 402.393 361.559 402.871 360.895 403.204C360.238 403.536 359.431 403.702 358.474 403.702H355.436ZM356.967 402.432H358.379C359.391 402.432 360.143 402.191 360.633 401.708C361.124 401.226 361.369 400.494 361.369 399.513C361.369 398.524 361.124 397.792 360.633 397.318C360.143 396.835 359.391 396.594 358.379 396.594H356.967V402.432ZM363.138 403.702L366.924 395.336H368.205L372.039 403.702H370.484L369.463 401.352L370.08 401.768H365.061L365.702 401.352L364.681 403.702H363.138ZM367.553 396.974L365.88 400.937L365.571 400.569H369.558L369.309 400.937L367.6 396.974H367.553ZM373.77 403.702V396.594H371.005V395.336H378.066V396.594H375.301V403.702H373.77ZM377.057 403.702L380.843 395.336H382.124L385.957 403.702H384.403L383.382 401.352L383.999 401.768H378.979L379.62 401.352L378.6 403.702H377.057ZM381.472 396.974L379.798 400.937L379.49 400.569H383.477L383.228 400.937L381.519 396.974H381.472Z" fill="white"/>
<path d="M394.904 399.202H406.771" stroke="white" stroke-width="1.48338" stroke-linecap="round" stroke-linejoin="round"/>
<path d="M402.321 394.752L406.771 399.202L402.321 403.652" stroke="white" stroke-width="1.48338" stroke-linecap="round" stroke-linejoin="round"/>
<rect x="56.3237" y="164.911" width="594.095" height="280.276" stroke="#E36F71" stroke-width="1.48338" stroke-dasharray="5.93 5.93"/>
<rect x="2.69629" y="2.29297" width="700.607" height="487" rx="20.2508" stroke="#F0F0F0" stroke-width="4"/>
<rect x="600" y="390.167" width="159.946" height="38.4375" rx="19.2187" transform="rotate(-16.7741 600 390.167)" fill="#262626"/>
<path d="M625.695 409.938L622.995 400.98L620.934 401.601L620.44 399.961L623.09 399.162L622.665 399.886L622.158 398.204C621.782 396.956 621.805 395.917 622.228 395.086C622.66 394.237 623.472 393.633 624.664 393.273C624.944 393.189 625.252 393.119 625.587 393.064C625.922 393.009 626.217 392.997 626.471 393.027L626.991 394.752C626.801 394.732 626.574 394.739 626.309 394.773C626.04 394.793 625.786 394.839 625.548 394.911C624.931 395.097 624.509 395.423 624.282 395.889C624.065 396.337 624.071 396.939 624.299 397.696L624.73 399.126L624.288 398.801L631.333 396.677L634.528 407.276L632.404 407.916L629.704 398.958L625.119 400.34L627.819 409.298L625.695 409.938ZM628.375 395.16L627.71 392.952L630.17 392.21L630.836 394.418L628.375 395.16ZM637.633 406.34L632.968 390.862L635.092 390.222L639.757 405.7L637.633 406.34ZM647.827 403.474C646.117 403.989 644.625 403.911 643.352 403.24C642.079 402.568 641.185 401.377 640.669 399.667C640.335 398.559 640.254 397.529 640.425 396.575C640.61 395.617 641.014 394.799 641.636 394.122C642.268 393.427 643.088 392.927 644.097 392.623C645.093 392.323 645.99 392.282 646.79 392.5C647.59 392.718 648.281 393.159 648.864 393.825C649.443 394.476 649.889 395.32 650.201 396.358L650.404 397.031L642.413 399.44L642.045 398.22L648.585 396.248L648.31 396.63C647.993 395.578 647.51 394.837 646.86 394.406C646.22 393.956 645.458 393.865 644.575 394.131C643.594 394.427 642.94 394.998 642.614 395.846C642.284 396.68 642.299 397.692 642.658 398.884L642.722 399.094C643.098 400.342 643.682 401.19 644.475 401.64C645.282 402.085 646.247 402.138 647.368 401.8C647.985 401.614 648.535 401.357 649.017 401.028C649.508 400.681 649.938 400.23 650.307 399.675L651.438 400.917C651.078 401.5 650.584 402.016 649.955 402.466C649.321 402.901 648.612 403.237 647.827 403.474ZM654.35 401.301L651.922 393.247C651.8 392.84 651.654 392.433 651.485 392.025C651.326 391.599 651.16 391.175 650.987 390.753L653.048 390.132L653.909 392.304L653.657 392.38C653.743 391.498 654.061 390.752 654.611 390.142C655.157 389.519 655.872 389.074 656.755 388.808C658.003 388.432 659.046 388.492 659.884 388.989C660.736 389.481 661.379 390.45 661.815 391.894L663.792 398.455L661.668 399.095L659.729 392.66C659.446 391.721 659.053 391.105 658.552 390.813C658.061 390.502 657.437 390.461 656.68 390.689C655.783 390.959 655.152 391.455 654.788 392.176C654.42 392.884 654.378 393.707 654.661 394.647L656.474 400.661L654.35 401.301ZM670.932 396.51C669.992 396.793 669.107 396.823 668.275 396.599C667.443 396.376 666.706 395.91 666.064 395.201C665.436 394.488 664.951 393.564 664.609 392.428C664.262 391.278 664.156 390.24 664.289 389.313C664.436 388.381 664.795 387.593 665.365 386.947C665.931 386.287 666.683 385.815 667.623 385.532C668.548 385.253 669.424 385.242 670.25 385.497C671.077 385.753 671.723 386.246 672.188 386.978L671.957 387.047L671.444 384.587L673.505 383.965C673.594 384.413 673.683 384.86 673.772 385.307C673.871 385.736 673.981 386.154 674.104 386.561L676.532 394.615L674.408 395.255L673.698 392.9L673.929 392.83C673.941 393.683 673.667 394.446 673.105 395.12C672.553 395.776 671.829 396.239 670.932 396.51ZM670.957 394.69C671.868 394.415 672.5 393.873 672.852 393.063C673.219 392.249 673.212 391.211 672.831 389.95C672.451 388.688 671.885 387.826 671.134 387.364C670.393 386.884 669.567 386.781 668.656 387.056C667.73 387.335 667.085 387.881 666.718 388.695C666.362 389.491 666.373 390.52 666.754 391.781C667.134 393.043 667.695 393.914 668.436 394.394C669.177 394.874 670.017 394.973 670.957 394.69ZM679.631 393.681L677.203 385.627C677.081 385.22 676.935 384.813 676.766 384.405C676.607 383.979 676.441 383.555 676.268 383.133L678.329 382.511L679.19 384.684L678.938 384.76C679 383.9 679.269 383.169 679.745 382.566C680.235 381.96 680.907 381.528 681.763 381.27C682.632 381.008 683.403 381.005 684.077 381.261C684.76 381.498 685.336 382.013 685.804 382.805L685.467 382.906C685.515 382.05 685.808 381.297 686.346 380.645C686.88 379.98 687.588 379.514 688.471 379.248C689.649 378.893 690.636 378.97 691.431 379.48C692.227 379.989 692.843 380.966 693.278 382.41L695.256 388.971L693.132 389.611L691.186 383.155C690.907 382.23 690.545 381.613 690.1 381.303C689.665 380.976 689.097 380.917 688.396 381.129C687.583 381.374 687.022 381.849 686.715 382.553C686.407 383.258 686.397 384.087 686.684 385.04L688.484 391.012L686.36 391.653L684.414 385.196C684.135 384.271 683.774 383.654 683.328 383.344C682.893 383.017 682.325 382.959 681.624 383.17C680.811 383.415 680.258 383.888 679.964 384.588C679.67 385.288 679.667 386.115 679.955 387.068L681.755 393.041L679.631 393.681ZM703.256 386.766C701.545 387.282 700.054 387.204 698.781 386.532C697.508 385.861 696.614 384.67 696.098 382.959C695.764 381.852 695.683 380.821 695.854 379.867C696.039 378.909 696.443 378.091 697.065 377.415C697.696 376.72 698.517 376.22 699.526 375.916C700.522 375.616 701.419 375.574 702.219 375.792C703.019 376.01 703.71 376.451 704.293 377.117C704.872 377.768 705.317 378.613 705.63 379.65L705.833 380.323L697.842 382.732L697.474 381.512L704.014 379.541L703.739 379.922C703.422 378.871 702.939 378.129 702.289 377.698C701.649 377.249 700.887 377.157 700.004 377.423C699.022 377.719 698.369 378.291 698.043 379.138C697.713 379.972 697.728 380.985 698.087 382.176L698.151 382.387C698.527 383.634 699.111 384.483 699.904 384.932C700.711 385.377 701.676 385.43 702.797 385.092C703.414 384.906 703.963 384.649 704.445 384.32C704.937 383.973 705.367 383.522 705.735 382.968L706.867 384.21C706.507 384.792 706.013 385.308 705.384 385.758C704.75 386.194 704.041 386.53 703.256 386.766ZM709.464 384.689L708.709 382.186L711.212 381.432L711.966 383.934L709.464 384.689ZM719.043 382.008C717.977 382.329 716.979 382.393 716.049 382.199C715.129 381.987 714.327 381.533 713.643 380.837C712.969 380.122 712.458 379.19 712.112 378.041C711.77 376.905 711.693 375.865 711.883 374.921C712.072 373.977 712.496 373.176 713.154 372.519C713.809 371.848 714.668 371.351 715.734 371.03C716.421 370.823 717.123 370.742 717.839 370.786C718.552 370.815 719.182 370.977 719.729 371.271L719.485 372.973C718.979 372.713 718.453 372.566 717.907 372.532C717.357 372.483 716.851 372.529 716.388 372.668C715.379 372.972 714.684 373.534 714.303 374.352C713.923 375.17 713.917 376.189 714.284 377.409C714.656 378.642 715.229 379.502 716.002 379.988C716.776 380.474 717.667 380.564 718.676 380.26C719.125 380.125 719.569 379.899 720.009 379.583C720.445 379.253 720.807 378.83 721.095 378.315L722.239 379.599C721.932 380.151 721.484 380.645 720.897 381.082C720.32 381.5 719.702 381.809 719.043 382.008ZM728.528 379.149C727.644 379.415 726.797 379.548 725.987 379.548C725.176 379.547 724.464 379.418 723.851 379.159L724.065 377.512C724.702 377.748 725.366 377.869 726.056 377.875C726.746 377.881 727.421 377.785 728.08 377.586C728.851 377.354 729.392 377.045 729.705 376.661C730.013 376.262 730.095 375.824 729.951 375.347C729.841 374.983 729.626 374.727 729.306 374.578C729 374.426 728.55 374.378 727.956 374.435L725.816 374.644C724.86 374.718 724.078 374.587 723.472 374.249C722.866 373.912 722.451 373.372 722.227 372.629C722.036 371.998 722.036 371.387 722.224 370.794C722.427 370.198 722.801 369.665 723.348 369.194C723.908 368.719 724.616 368.353 725.471 368.095C726.256 367.859 727.019 367.751 727.76 367.772C728.5 367.794 729.158 367.947 729.734 368.233L729.485 369.845C728.941 369.611 728.366 369.479 727.76 369.447C727.15 369.402 726.564 369.463 726.003 369.632C725.218 369.869 724.681 370.192 724.391 370.6C724.101 371.009 724.028 371.451 724.172 371.928C724.282 372.292 724.485 372.56 724.781 372.731C725.087 372.883 725.511 372.946 726.054 372.921L728.193 372.712C729.206 372.62 730.018 372.727 730.63 373.032C731.242 373.337 731.662 373.868 731.89 374.625C732.089 375.284 732.08 375.914 731.863 376.515C731.646 377.115 731.254 377.639 730.685 378.086C730.116 378.532 729.397 378.887 728.528 379.149ZM738.213 376.023L730.476 366.793L732.747 366.108L738.991 373.884L738.381 374.068L739.351 364.118L741.517 363.465L740.148 375.44L738.213 376.023Z" fill="white"/>
<rect x="758.398" y="342.422" width="38.4375" height="38.4375" rx="19.2187" transform="rotate(-16.7741 758.398 342.422)" fill="#262626"/>
<path fill-rule="evenodd" clip-rule="evenodd" d="M779.705 346.514C780.31 346.331 780.948 346.674 781.13 347.279L785.752 362.613C785.935 363.218 785.592 363.856 784.987 364.038C784.382 364.221 783.744 363.878 783.562 363.273L778.94 347.939C778.757 347.334 779.1 346.696 779.705 346.514Z" fill="white"/>
<path fill-rule="evenodd" clip-rule="evenodd" d="M773.584 357.918C773.402 357.313 773.744 356.674 774.349 356.492L789.683 351.87C790.288 351.688 790.926 352.03 791.109 352.635C791.291 353.24 790.949 353.878 790.344 354.061L775.01 358.683C774.405 358.865 773.766 358.522 773.584 357.918Z" fill="white"/>
<g clip-path="url(#clip3_207_10080)">
<path d="M754.242 370.915C756.338 369.782 757.983 372.028 758.544 373.293C757.884 371.699 757.217 368.298 759.826 367.44C762.056 366.707 763.533 369.557 764.204 371.731C763.862 370.011 763.946 367.697 766.071 367.35C768.472 366.957 769.619 370.377 769.912 371.717C770.141 369.921 773.314 364.702 776.449 372.645C779.18 379.564 774.581 384.977 771.94 386.819C768.523 388.267 760.578 390.745 756.131 389.075C750.573 386.986 749.234 380.759 750.308 379.27C751.168 378.079 753.998 379.323 755.306 380.093C754.078 377.506 752.147 372.049 754.242 370.915Z" fill="white"/>
<path d="M770.098 372.587L769.107 369.301C768.897 368.604 768.419 368.019 767.777 367.674C767.136 367.33 766.384 367.254 765.686 367.464V367.464C764.989 367.675 764.404 368.153 764.06 368.795C763.715 369.436 763.64 370.188 763.85 370.886L764.405 372.726" stroke="#262626" stroke-width="2.74553" stroke-linecap="round" stroke-linejoin="round"/>
<path d="M764.246 372.2L763.454 369.571C763.244 368.874 762.765 368.289 762.124 367.945C761.482 367.6 760.73 367.525 760.033 367.735V367.735C759.336 367.945 758.751 368.424 758.406 369.065C758.062 369.707 757.987 370.459 758.197 371.156L758.989 373.785" stroke="#262626" stroke-width="2.74553" stroke-linecap="round" stroke-linejoin="round"/>
<path d="M758.949 373.654L758.593 372.471C758.383 371.774 757.904 371.188 757.263 370.844C756.621 370.5 755.869 370.424 755.172 370.634V370.634C754.475 370.845 753.889 371.323 753.545 371.965C753.201 372.606 753.125 373.358 753.335 374.055L755.316 380.627" stroke="#262626" stroke-width="2.74553" stroke-linecap="round" stroke-linejoin="round"/>
<path d="M755.316 380.63C755.106 379.933 754.628 379.348 753.986 379.003C753.345 378.659 752.592 378.583 751.895 378.794C751.198 379.004 750.613 379.482 750.269 380.124C749.924 380.765 749.849 381.517 750.059 382.215V382.215" stroke="#262626" stroke-width="2.74553" stroke-linecap="round" stroke-linejoin="round"/>
<path d="M769.9 371.93C769.69 371.233 769.765 370.481 770.11 369.84C770.454 369.198 771.039 368.72 771.737 368.509C772.434 368.299 773.186 368.375 773.827 368.719C774.469 369.063 774.947 369.649 775.158 370.346L776.346 374.289C777.187 377.078 776.885 380.086 775.508 382.652C774.13 385.219 771.789 387.133 769.001 387.973L763.743 389.558C760.955 390.398 757.946 390.097 755.38 388.719C752.814 387.342 750.9 385.001 750.059 382.212C749.849 381.515 749.924 380.763 750.269 380.122C750.613 379.48 751.198 379.001 751.895 378.791C752.593 378.581 753.345 378.657 753.986 379.001C754.628 379.345 755.106 379.931 755.316 380.628" stroke="#262626" stroke-width="2.74553" stroke-linecap="round" stroke-linejoin="round"/>
</g>
<defs>
<clipPath id="clip0_207_10080">
<rect x="183.524" y="100.828" width="14.8338" height="14.8338" rx="7.41692" fill="white"/>
</clipPath>
<clipPath id="clip1_207_10080">
<rect x="345.954" y="100.828" width="14.8338" height="14.8338" rx="7.41692" fill="white"/>
</clipPath>
<clipPath id="clip2_207_10080">
<rect x="508.385" y="100.828" width="14.8338" height="14.8338" rx="7.41692" fill="white"/>
</clipPath>
<clipPath id="clip3_207_10080">
<rect width="32.9464" height="32.9464" fill="white" transform="translate(741.884 364.604) rotate(-16.7741)"/>
</clipPath>
</defs>
</svg>
