<svg width="158" height="107" viewBox="0 0 158 107" fill="none" xmlns="http://www.w3.org/2000/svg">
<path fill-rule="evenodd" clip-rule="evenodd" d="M61.9504 44.793V57.793H65.1504H68.3504V52.793C68.3504 49.493 68.3504 47.693 68.3504 47.493C68.4504 46.993 68.5504 46.493 68.8504 46.093C69.2504 45.393 69.9504 45.093 70.7504 45.193C71.8504 45.293 72.5504 45.893 72.7504 47.193C72.7504 47.393 72.7504 49.393 72.7504 52.593V57.693H75.9504H79.1504V51.693C79.1504 46.593 79.1504 45.593 79.0504 45.093C78.8504 43.293 78.2504 41.893 77.1504 40.893C76.2504 39.993 75.1504 39.493 73.8504 39.293C73.3504 39.193 71.9504 39.293 71.5504 39.393C70.3504 39.693 69.4504 40.093 68.6504 40.993L68.1504 41.393V36.593V31.793H64.9504H61.7504V44.793H61.9504ZM129.95 31.993C129.75 32.393 123.25 48.093 123.25 48.093C123.25 48.093 124.95 48.093 127.05 48.093H130.85L134.25 39.993C136.15 35.493 137.65 31.793 137.65 31.793C137.65 31.793 135.95 31.793 133.85 31.793H130.05L129.95 31.993ZM47.9504 39.393C46.5504 39.593 45.4504 39.993 44.3504 40.693C42.1504 42.093 40.7504 44.493 40.3504 47.293C40.1504 48.593 40.2504 50.193 40.5504 51.393C41.3504 54.493 43.4504 56.893 46.1504 57.793C47.1504 58.093 47.5504 58.193 48.7504 58.193C49.6504 58.193 49.9504 58.193 50.2504 58.093C51.5504 57.793 52.4504 57.293 53.2504 56.493L53.6504 56.093V56.893V57.693H56.7504H59.8504V48.693V39.693H56.7504H53.6504V40.493V41.293L53.3504 40.993C52.6504 40.193 51.6504 39.693 50.3504 39.393C49.9504 39.293 49.7504 39.293 48.9504 39.293C48.4504 39.393 48.0504 39.393 47.9504 39.393ZM88.7504 39.393C87.0504 39.593 85.2504 40.393 83.9504 41.393C81.4504 43.493 80.1504 46.793 80.6504 50.193C81.1504 53.993 83.8504 56.893 87.6504 57.893C88.4504 58.093 89.2504 58.193 90.2504 58.193C92.0504 58.193 93.3504 57.893 94.7504 57.193C97.5504 55.793 99.3504 53.293 99.7504 50.193C99.8504 49.393 99.8504 48.093 99.7504 47.393C99.5504 45.893 98.9504 44.393 98.0504 43.193C97.6504 42.693 96.8504 41.793 96.3504 41.393C94.9504 40.293 93.3504 39.593 91.5504 39.393C90.8504 39.293 89.4504 39.293 88.7504 39.393ZM109.15 39.393C107.45 39.593 105.75 40.293 104.45 41.393C103.95 41.793 103.05 42.693 102.75 43.193C101.85 44.393 101.35 45.893 101.05 47.393C100.95 48.093 100.95 49.493 101.05 50.193C101.65 54.193 104.55 57.293 108.55 58.093C109.35 58.293 109.75 58.293 110.65 58.293C112.35 58.293 113.85 57.993 115.25 57.193C118.95 55.293 120.95 51.093 120.05 46.793C119.25 42.793 116.05 39.893 111.95 39.393C111.25 39.293 109.85 39.293 109.15 39.393ZM19.6504 39.793C19.6504 39.793 21.3504 43.893 23.4504 48.893C25.5504 53.893 27.2504 57.993 27.2504 57.993C27.2504 57.993 26.6504 59.493 25.8504 61.293C25.0504 63.093 24.4504 64.493 24.4504 64.593C24.4504 64.693 25.9504 64.593 27.8504 64.593H31.2504L36.3504 52.293C39.1504 45.493 41.4504 39.993 41.4504 39.893C41.4504 39.893 40.7504 39.793 38.0504 39.893H34.6504L32.5504 45.093C31.6504 47.893 30.7504 50.293 30.7504 50.293C30.7504 50.293 29.8504 47.893 28.6504 45.093L26.6504 39.893H23.1504C21.2504 39.793 19.6504 39.793 19.6504 39.793ZM51.0504 45.193C52.3504 45.493 53.3504 46.493 53.7504 47.793C53.8504 48.293 53.8504 49.193 53.7504 49.693C53.4504 50.993 52.4504 51.993 51.1504 52.293C50.6504 52.393 49.7504 52.393 49.2504 52.293C48.1504 51.993 47.1504 51.193 46.7504 50.193C46.2504 49.093 46.4504 47.693 47.0504 46.693C47.9504 45.393 49.4504 44.893 51.0504 45.193ZM90.9504 45.293C92.3504 45.493 93.4504 46.593 93.7504 47.993C93.8504 48.493 93.8504 49.293 93.7504 49.793C93.4504 51.093 92.4504 51.993 91.2504 52.393C90.8504 52.493 89.7504 52.493 89.3504 52.393C88.3504 52.093 87.5504 51.393 87.0504 50.493C86.7504 49.893 86.7504 49.593 86.7504 48.893C86.7504 48.293 86.8504 47.993 87.0504 47.493C87.3504 46.893 87.7504 46.293 88.3504 45.893C88.9504 45.293 89.9504 45.093 90.9504 45.293ZM111.25 45.293C112.45 45.493 113.45 46.293 113.85 47.393C114.05 47.893 114.15 48.193 114.15 48.793C114.15 49.493 114.05 49.793 113.85 50.393C113.45 51.293 112.55 51.993 111.55 52.293C111.15 52.393 110.05 52.393 109.65 52.293C108.45 51.993 107.45 50.993 107.15 49.693C107.05 49.193 107.05 48.293 107.15 47.793C107.55 46.193 108.95 45.093 110.55 45.093C110.75 45.193 111.05 45.193 111.25 45.293ZM124.85 49.693C122.95 49.893 121.55 51.293 121.15 53.093C121.05 53.593 121.05 54.493 121.15 54.993C121.55 56.593 122.75 57.693 124.35 58.093C124.55 58.093 124.95 58.193 125.25 58.193C126.45 58.193 127.45 57.793 128.25 56.993C129.15 56.093 129.45 55.193 129.45 53.993C129.45 52.493 128.75 51.193 127.55 50.493C126.75 49.793 125.65 49.593 124.85 49.693ZM72.1504 59.493C70.8504 59.893 70.2504 61.393 70.9504 62.493C71.1504 62.793 71.5504 63.193 71.8504 63.293C72.1504 63.393 72.1504 63.393 72.7504 63.393C73.2504 63.393 73.3504 63.393 73.6504 63.293C74.0504 63.093 74.4504 62.693 74.6504 62.293C75.1504 61.293 74.6504 60.093 73.6504 59.593C73.3504 59.393 73.2504 59.393 72.8504 59.393C72.4504 59.393 72.3504 59.393 72.1504 59.493ZM66.7504 59.593C65.0504 59.893 63.9504 60.993 63.4504 62.793C63.3504 63.093 63.3504 63.393 63.3504 63.793V64.493H62.6504H61.9504V65.993V67.493H62.6504H63.3504V71.093V74.693H65.2504H67.1504V71.093V67.493H68.4504H69.7504V65.993V64.493H68.4504H67.1504V64.193C67.2504 63.493 67.5504 62.993 68.1504 62.893C68.5504 62.793 69.1504 62.793 69.5504 62.993C69.7504 63.093 69.8504 63.093 69.8504 63.093C69.8504 63.093 69.8504 62.393 69.8504 61.493V59.893L69.5504 59.793C69.1504 59.593 68.6504 59.593 67.9504 59.593C67.4504 59.493 67.0504 59.593 66.7504 59.593ZM81.9504 64.293C81.1504 64.493 80.5504 64.893 80.1504 65.393L79.9504 65.693V65.093V64.493H78.0504H76.1504V69.593V74.693H78.0504H79.9504V71.893C79.9504 70.293 79.9504 68.993 79.9504 68.793C80.0504 68.393 80.2504 67.993 80.4504 67.793C80.9504 67.393 81.8504 67.493 82.2504 67.993C82.5504 68.393 82.5504 68.393 82.5504 71.593V74.593H84.4504H86.3504V71.193C86.3504 67.593 86.3504 67.193 86.1504 66.493C85.9504 65.893 85.7504 65.393 85.2504 64.993C84.8504 64.593 84.4504 64.293 83.8504 64.193C83.3504 64.193 82.3504 64.193 81.9504 64.293ZM91.4504 64.193C90.8504 64.293 89.9504 64.593 89.4504 64.993C88.3504 65.793 87.6504 66.993 87.3504 68.493C87.2504 69.093 87.2504 70.193 87.3504 70.793C87.5504 71.693 87.8504 72.593 88.3504 73.193C89.0504 74.093 89.9504 74.693 91.0504 74.893C91.6504 74.993 92.6504 74.993 93.1504 74.793C93.7504 74.593 94.1504 74.393 94.6504 73.993L95.0504 73.593V74.093V74.593H96.9504H98.8504V69.493V64.393H96.9504H95.0504V64.893V65.393L94.7504 65.293C94.2504 64.793 93.5504 64.393 92.7504 64.293C92.4504 64.193 91.7504 64.193 91.4504 64.193ZM105.95 64.293C105.25 64.393 104.55 64.893 104.15 65.393L103.95 65.593V64.993V64.393H102.05H100.15V69.493V74.593H102.05H103.95V71.693C103.95 68.593 103.95 68.593 104.15 68.093C104.35 67.693 104.75 67.493 105.15 67.493C105.55 67.493 105.75 67.593 106.05 67.793C106.45 68.193 106.45 68.093 106.45 71.493V74.493H108.35H110.25V70.793C110.25 67.093 110.25 67.093 110.15 66.693C110.05 66.493 109.95 66.093 109.85 65.793C109.65 65.393 109.55 65.293 109.25 64.993C108.85 64.593 108.55 64.393 108.15 64.193C107.45 64.193 106.65 64.093 105.95 64.293ZM115.85 64.293C114.15 64.593 112.85 65.393 112.05 66.793C111.85 67.193 111.65 67.693 111.45 68.193C111.35 68.693 111.35 68.793 111.35 69.593C111.35 70.493 111.35 70.793 111.65 71.493C112.25 73.193 113.65 74.493 115.55 74.893C115.85 74.993 116.15 74.993 116.85 74.993C117.85 74.993 118.25 74.893 118.95 74.593L119.35 74.393V72.693V70.993L119.05 71.193C118.55 71.493 118.25 71.593 117.65 71.593C117.05 71.593 116.75 71.593 116.35 71.393C115.95 71.193 115.65 70.893 115.45 70.493C115.35 70.193 115.35 70.193 115.35 69.693C115.35 69.293 115.35 69.193 115.45 68.893C115.75 68.093 116.45 67.693 117.45 67.593C118.15 67.593 118.45 67.593 119.45 68.093C119.45 68.093 119.45 67.293 119.45 66.393V64.693L119.15 64.593C118.05 64.193 116.85 64.093 115.85 64.293ZM124.45 64.293C121.55 64.793 119.75 67.293 119.95 70.193C120.05 71.193 120.35 72.093 120.85 72.793C121.55 73.893 122.65 74.593 124.05 74.893C124.65 74.993 126.25 74.993 126.95 74.893C127.95 74.693 128.85 74.193 129.55 73.493C129.85 73.193 130.35 72.493 130.35 72.493C130.35 72.493 129.65 72.193 128.75 71.893L127.15 71.293L126.95 71.493C126.65 71.793 126.45 71.893 126.05 71.993C124.95 72.293 123.85 71.693 123.65 70.693V70.493H127.15H130.65V69.593C130.65 68.993 130.65 68.593 130.55 68.393C130.35 67.193 129.85 66.393 129.15 65.593C128.45 64.893 127.65 64.493 126.55 64.293C126.15 64.193 124.95 64.193 124.45 64.293ZM70.8504 69.593V74.693H72.7504H74.6504V69.593V64.493H72.7504H70.8504V69.593ZM125.95 67.093C126.25 67.193 126.35 67.293 126.65 67.493C126.85 67.693 127.05 67.893 127.05 68.193V68.393H125.35C123.45 68.393 123.55 68.393 123.75 67.993C124.05 67.293 124.95 66.893 125.95 67.093ZM93.6504 67.593C94.1504 67.693 94.7504 68.193 94.9504 68.693C95.4504 69.793 94.9504 71.093 93.7504 71.493C93.3504 71.593 92.7504 71.593 92.3504 71.493C91.7504 71.293 91.1504 70.793 91.0504 70.193C90.9504 69.893 90.9504 69.793 90.9504 69.493C90.9504 69.093 90.9504 68.993 91.1504 68.693C91.5504 67.793 92.5504 67.393 93.6504 67.593Z" fill="#262626"/>
</svg>
